{"glyphs":{"0":{"ha":268,"x_min":14,"x_max":254,"o":"m 135 975 q 219 940 184 975 q 254 854 254 905 l 254 118 q 219 33 254 68 q 135 -3 184 -3 q 49 33 85 -3 q 14 118 14 68 l 14 854 q 49 940 14 904 q 135 975 85 975 m 147 532 l 147 847 q 143 856 147 852 q 135 860 140 860 q 125 856 129 860 q 121 847 121 852 l 121 497 l 147 532 m 147 475 l 121 439 l 121 125 q 125 116 121 119 q 135 113 129 113 q 143 116 140 113 q 147 125 147 119 l 147 475 z "},"1":{"ha":179,"x_min":7,"x_max":165,"o":"m 7 884 l 82 972 l 165 972 l 165 0 l 58 0 l 58 778 l 7 717 l 7 884 z "},"2":{"ha":268,"x_min":14,"x_max":254,"o":"m 14 0 l 14 314 q 33 380 14 355 q 96 437 53 406 q 121 458 113 450 q 139 478 130 465 q 147 504 147 491 l 147 847 q 143 856 147 852 q 134 860 140 860 q 125 856 129 860 q 121 847 121 852 l 121 587 l 14 587 l 14 854 q 49 940 14 905 q 134 975 84 975 q 219 940 183 975 q 254 854 254 905 l 254 492 q 248 450 254 469 q 227 414 241 431 q 203 390 213 398 q 174 367 193 381 q 132 330 142 343 q 121 300 121 316 l 121 115 l 254 115 l 254 0 l 14 0 z "},"3":{"ha":267,"x_min":14,"x_max":253,"o":"m 218 33 q 201 15 218 33 q 134 -3 183 -3 q 49 33 84 -3 q 14 118 14 68 l 14 322 l 121 322 l 121 125 q 124 116 121 120 q 134 113 128 113 q 142 116 138 113 q 146 125 146 119 l 146 415 q 142 425 146 420 q 134 429 138 429 l 85 429 l 85 543 l 134 543 q 142 547 138 543 q 146 557 146 551 l 146 847 q 142 856 146 852 q 134 860 138 860 q 125 856 129 860 q 121 847 121 852 l 121 650 l 14 650 l 14 854 q 49 940 14 905 q 134 975 84 975 q 218 940 183 975 q 253 854 253 905 l 253 551 q 243 515 253 532 q 218 490 234 498 l 218 481 q 253 418 253 460 l 253 118 q 218 33 253 68 z "},"4":{"ha":273,"x_min":9,"x_max":264,"o":"m 237 972 l 237 278 l 264 278 l 264 171 l 237 171 l 237 0 l 131 0 l 131 171 l 9 171 l 9 265 l 57 972 l 237 972 m 110 278 l 138 278 l 138 789 l 127 789 l 110 278 z "},"5":{"ha":268,"x_min":14,"x_max":254,"o":"m 121 644 l 179 644 q 232 623 210 644 q 254 570 254 601 l 254 118 q 219 33 254 68 q 134 -3 183 -3 q 49 33 84 -3 q 14 118 14 68 l 14 385 l 121 385 l 121 125 q 124 116 121 120 q 134 113 128 113 q 147 125 147 113 l 147 517 q 134 529 147 529 l 14 529 l 14 972 l 254 972 l 254 857 l 121 857 l 121 644 z "},"6":{"ha":268,"x_min":14,"x_max":254,"o":"m 14 118 l 14 854 q 49 940 14 904 q 135 975 85 975 q 219 940 184 975 q 254 854 254 905 l 254 587 l 147 587 l 147 847 q 143 856 147 852 q 135 860 140 860 q 125 856 129 860 q 121 847 121 852 l 121 541 l 135 541 q 219 505 184 541 q 254 419 254 469 l 254 118 q 219 33 254 68 q 135 -3 184 -3 q 49 33 85 -3 q 14 118 14 68 m 135 425 l 121 425 l 121 125 q 125 116 121 119 q 135 113 129 113 q 143 116 140 113 q 147 125 147 119 l 147 412 q 143 421 147 418 q 135 425 140 425 z "},"7":{"ha":254,"x_min":7,"x_max":248,"o":"m 113 0 l 7 0 l 140 865 l 7 865 l 7 972 l 248 972 l 248 878 l 113 0 z "},"8":{"ha":267,"x_min":14,"x_max":253,"o":"m 218 33 q 201 15 218 33 q 134 -3 183 -3 q 49 33 84 -3 q 14 118 14 68 l 14 418 q 23 454 14 437 q 49 481 33 471 l 49 490 q 23 515 33 498 q 14 551 14 532 l 14 854 q 49 940 14 905 q 134 975 84 975 q 218 940 183 975 q 253 854 253 905 l 253 551 q 243 515 253 532 q 218 490 234 498 l 218 481 q 253 418 253 460 l 253 118 q 218 33 253 68 m 142 856 q 140 858 142 856 q 134 860 138 860 q 125 856 129 860 q 121 847 121 852 l 121 557 q 125 547 121 551 q 134 543 129 543 q 142 547 138 543 q 146 557 146 551 l 146 847 q 142 856 146 852 m 142 425 q 140 427 142 425 q 134 429 138 429 q 125 425 129 429 q 121 415 121 420 l 121 125 q 124 116 121 120 q 134 113 128 113 q 142 116 138 113 q 146 125 146 119 l 146 415 q 142 425 146 420 z "},"9":{"ha":268,"x_min":14,"x_max":254,"o":"m 254 854 l 254 118 q 219 33 254 68 q 134 -3 183 -3 q 49 33 84 -3 q 14 118 14 68 l 14 385 l 121 385 l 121 125 q 124 116 121 120 q 134 113 128 113 q 147 125 147 113 l 147 432 l 134 432 q 49 467 84 432 q 14 553 14 503 l 14 854 q 49 940 14 905 q 134 975 84 975 q 219 940 183 975 q 254 854 254 905 m 134 547 l 147 547 l 147 847 q 143 856 147 852 q 134 860 140 860 q 125 856 129 860 q 121 847 121 852 l 121 559 q 124 551 121 555 q 134 547 128 547 z "},"\u0000":{"ha":0,"x_min":0,"x_max":0,"o":""},"\r":{"ha":347,"x_min":0,"x_max":0,"o":""}," ":{"ha":138,"x_min":0,"x_max":0,"o":""},"!":{"ha":134,"x_min":14,"x_max":121,"o":"m 14 972 l 121 972 l 121 195 l 14 195 l 14 972 m 14 167 l 121 167 l 121 0 l 14 0 l 14 167 z "},"\"":{"ha":276,"x_min":18,"x_max":258,"o":"m 18 972 l 125 972 l 125 847 l 109 724 l 35 724 l 18 847 l 18 972 m 151 972 l 258 972 l 258 847 l 241 724 l 168 724 l 151 847 l 151 972 z "},"#":{"ha":268,"x_min":14,"x_max":254,"o":"m 106 972 l 140 972 l 122 639 l 164 639 l 182 972 l 216 972 l 199 639 l 254 639 l 254 604 l 196 604 l 183 368 l 254 368 l 254 334 l 180 334 l 163 0 l 127 0 l 146 334 l 104 334 l 86 0 l 52 0 l 69 334 l 14 334 l 14 368 l 72 368 l 85 604 l 14 604 l 14 639 l 87 639 l 106 972 m 107 368 l 149 368 l 161 604 l 119 604 l 107 368 z "},"$":{"ha":268,"x_min":14,"x_max":254,"o":"m 14 575 l 14 854 q 43 934 14 900 q 117 974 73 968 l 117 1021 l 151 1021 l 151 974 q 225 934 195 968 q 254 854 254 900 l 254 587 l 147 587 l 147 847 q 143 856 147 852 q 135 860 140 860 q 125 856 129 860 q 121 847 121 852 l 121 587 q 129 562 121 574 q 146 541 138 549 q 172 521 155 534 q 215 486 201 500 q 242 449 230 473 q 254 397 254 426 l 254 118 q 225 39 254 73 q 151 -1 195 5 l 151 -49 l 117 -49 l 117 -1 q 43 39 73 5 q 14 118 14 73 l 14 383 l 121 383 l 121 125 q 125 116 121 119 q 135 113 129 113 q 143 116 140 113 q 147 125 147 119 l 147 383 q 136 413 147 399 q 94 450 125 427 q 65 473 75 465 q 41 498 55 481 q 20 533 26 514 q 14 575 14 552 z "},"%":{"ha":362,"x_min":9,"x_max":353,"o":"m 106 975 q 172 947 144 975 q 200 879 200 918 l 200 789 q 172 722 200 750 q 106 694 144 694 q 38 722 66 694 q 9 789 9 750 l 9 879 q 38 947 9 918 q 106 975 66 975 m 261 972 l 353 972 l 249 467 l 197 467 l 102 0 l 9 0 l 114 505 l 165 505 l 261 972 m 115 796 l 115 873 q 113 881 115 878 q 106 885 110 885 q 98 881 101 885 q 94 873 94 878 l 94 796 q 106 785 94 785 q 115 796 115 785 m 258 278 q 325 250 297 278 q 353 182 353 221 l 353 92 q 325 25 353 53 q 258 -3 297 -3 q 191 25 219 -3 q 163 92 163 53 l 163 182 q 191 250 163 222 q 258 278 219 278 m 268 98 l 268 176 q 265 184 268 180 q 258 187 262 187 q 248 176 248 187 l 248 98 q 258 87 248 87 q 268 98 268 87 z "},"&":{"ha":287,"x_min":14,"x_max":281,"o":"m 146 587 l 253 587 l 253 539 l 281 539 l 281 433 l 253 433 l 253 118 q 218 33 253 68 q 134 -3 183 -3 q 49 33 84 -3 q 14 118 14 68 l 14 418 q 23 454 14 437 q 49 481 33 471 l 49 490 q 23 515 33 498 q 14 551 14 532 l 14 854 q 49 940 14 905 q 134 975 84 975 q 218 940 183 975 q 253 854 253 905 l 253 694 l 146 694 l 146 847 q 142 856 146 852 q 134 860 138 860 q 125 856 129 860 q 121 847 121 852 l 121 553 q 125 543 121 547 q 134 539 129 539 l 146 539 l 146 587 m 134 433 q 125 429 129 433 q 121 419 121 425 l 121 125 q 124 116 121 120 q 134 113 128 113 q 142 116 138 113 q 146 125 146 119 l 146 433 l 134 433 z "},"'":{"ha":142,"x_min":18,"x_max":125,"o":"m 18 972 l 125 972 l 125 847 l 109 724 l 35 724 l 18 847 l 18 972 z "},"(":{"ha":178,"x_min":18,"x_max":160,"o":"m 139 1007 l 160 1007 l 160 972 l 139 972 q 78 947 103 972 q 53 886 53 922 l 53 86 q 78 25 53 50 q 139 0 103 0 l 160 0 l 160 -35 l 139 -35 q 54 1 90 -35 q 18 86 18 37 l 18 886 q 54 971 18 936 q 139 1007 90 1007 z "},")":{"ha":178,"x_min":18,"x_max":160,"o":"m 39 1007 q 124 971 89 1007 q 160 886 160 936 l 160 86 q 124 1 160 37 q 39 -35 89 -35 l 18 -35 l 18 0 l 39 0 q 100 25 75 0 q 125 86 125 50 l 125 886 q 100 947 125 922 q 39 972 75 972 l 18 972 l 18 1007 l 39 1007 z "},"*":{"ha":220,"x_min":18,"x_max":203,"o":"m 93 972 l 127 972 l 127 882 l 184 914 l 203 885 l 144 851 l 203 818 l 184 789 l 127 821 l 127 730 l 93 730 l 93 821 l 36 789 l 18 818 l 75 851 l 18 885 l 36 914 l 93 882 l 93 972 z "},"+":{"ha":229,"x_min":14,"x_max":215,"o":"m 14 541 l 66 541 l 66 642 l 163 642 l 163 541 l 215 541 l 215 433 l 163 433 l 163 330 l 66 330 l 66 433 l 14 433 l 14 541 z "},",":{"ha":142,"x_min":18,"x_max":125,"o":"m 18 0 l 18 167 l 125 167 l 125 0 l 107 -77 l 41 -77 l 60 0 l 18 0 z "},"-":{"ha":229,"x_min":14,"x_max":215,"o":"m 14 496 l 215 496 l 215 389 l 14 389 l 14 496 z "},".":{"ha":142,"x_min":18,"x_max":125,"o":"m 18 0 l 18 167 l 125 167 l 125 0 l 18 0 z "},"/":{"ha":268,"x_min":14,"x_max":254,"o":"m 218 972 l 254 972 l 50 0 l 14 0 l 218 972 z "},":":{"ha":142,"x_min":18,"x_max":125,"o":"m 18 415 l 18 582 l 125 582 l 125 415 l 18 415 m 18 0 l 18 167 l 125 167 l 125 0 l 18 0 z "},";":{"ha":142,"x_min":18,"x_max":125,"o":"m 18 415 l 18 582 l 125 582 l 125 415 l 18 415 m 18 0 l 18 167 l 125 167 l 125 0 l 107 -77 l 41 -77 l 60 0 l 18 0 z "},"<":{"ha":241,"x_min":18,"x_max":224,"o":"m 200 232 l 18 412 l 200 595 l 224 571 l 66 412 l 222 256 l 200 232 z "},"=":{"ha":229,"x_min":14,"x_max":215,"o":"m 14 631 l 215 631 l 215 524 l 14 524 l 14 631 m 14 444 l 215 444 l 215 338 l 14 338 l 14 444 z "},">":{"ha":241,"x_min":18,"x_max":224,"o":"m 41 232 l 20 256 l 175 412 l 18 571 l 41 595 l 224 412 l 41 232 z "},"?":{"ha":268,"x_min":14,"x_max":254,"o":"m 187 195 l 81 195 l 81 328 q 90 391 81 365 q 121 449 99 416 q 147 518 147 490 l 147 847 q 143 856 147 852 q 134 860 140 860 q 125 856 129 860 q 121 847 121 852 l 121 587 l 14 587 l 14 854 q 49 940 14 905 q 134 975 84 975 q 219 940 183 975 q 254 854 254 905 l 254 519 q 244 454 254 482 q 210 389 235 427 q 187 328 187 353 l 187 195 m 81 167 l 187 167 l 187 0 l 81 0 l 81 167 z "},"@":{"ha":288,"x_min":14,"x_max":271,"o":"m 236 -41 l 271 -41 q 234 -133 271 -96 q 143 -171 197 -171 q 52 -133 90 -171 q 14 -41 14 -95 l 14 846 q 52 937 14 899 q 143 975 90 975 q 234 938 197 975 q 271 846 271 900 l 271 0 l 236 0 l 236 66 l 229 66 q 209 18 229 39 q 160 -3 188 -3 q 113 18 133 -3 q 93 66 93 39 l 93 737 q 113 786 93 766 q 160 807 133 807 q 209 787 189 807 q 229 737 229 766 l 236 737 l 236 846 q 209 912 236 885 q 143 940 182 940 q 76 913 103 940 q 49 846 49 886 l 49 -41 q 76 -109 49 -81 q 143 -136 104 -136 q 209 -109 182 -136 q 236 -41 236 -81 m 200 689 l 200 126 q 204 116 200 120 q 215 113 209 113 q 229 126 229 113 l 229 689 q 215 703 229 703 q 204 699 209 703 q 200 689 200 695 z "},"A":{"ha":264,"x_min":7,"x_max":257,"o":"m 46 972 l 220 972 l 257 107 l 257 0 l 151 0 l 146 278 l 118 278 l 113 0 l 7 0 l 7 107 l 46 972 m 127 831 l 119 385 l 144 385 l 138 831 l 127 831 z "},"B":{"ha":268,"x_min":14,"x_max":254,"o":"m 254 851 l 254 551 q 245 515 254 532 q 220 490 235 498 l 220 481 q 254 418 254 460 l 254 121 q 219 35 254 71 q 135 0 184 0 l 14 0 l 14 972 l 135 972 q 219 937 184 972 q 254 851 254 901 m 147 557 l 147 844 q 143 853 147 850 q 135 857 140 857 l 121 857 l 121 543 l 135 543 q 143 547 140 543 q 147 557 147 551 m 147 127 l 147 415 q 143 425 147 420 q 135 429 140 429 l 121 429 l 121 115 l 135 115 q 143 119 140 115 q 147 127 147 122 z "},"C":{"ha":268,"x_min":14,"x_max":254,"o":"m 135 975 q 219 940 184 975 q 254 854 254 905 l 254 539 l 147 539 l 147 847 q 143 856 147 852 q 135 860 140 860 q 125 856 129 860 q 121 847 121 852 l 121 125 q 125 116 121 119 q 135 113 129 113 q 143 116 140 113 q 147 125 147 119 l 147 432 l 254 432 l 254 118 q 219 33 254 68 q 135 -3 184 -3 q 49 33 85 -3 q 14 118 14 68 l 14 854 q 49 940 14 904 q 135 975 85 975 z "},"D":{"ha":268,"x_min":14,"x_max":254,"o":"m 14 0 l 14 972 l 135 972 q 219 937 184 972 q 254 851 254 901 l 254 121 q 219 35 254 71 q 135 0 184 0 l 14 0 m 147 127 l 147 844 q 143 853 147 850 q 135 857 140 857 l 121 857 l 121 115 l 135 115 q 143 119 140 115 q 147 127 147 122 z "},"E":{"ha":195,"x_min":14,"x_max":189,"o":"m 14 972 l 189 972 l 189 857 l 121 857 l 121 541 l 187 541 l 187 432 l 121 432 l 121 115 l 189 115 l 189 0 l 14 0 l 14 972 z "},"F":{"ha":195,"x_min":14,"x_max":189,"o":"m 14 972 l 189 972 l 189 857 l 121 857 l 121 541 l 187 541 l 187 432 l 121 432 l 121 0 l 14 0 l 14 972 z "},"G":{"ha":268,"x_min":14,"x_max":254,"o":"m 135 975 q 219 940 184 975 q 254 854 254 905 l 254 646 l 147 646 l 147 847 q 143 856 147 852 q 135 860 140 860 q 125 856 129 860 q 121 847 121 852 l 121 125 q 125 116 121 119 q 135 113 129 113 q 143 116 140 113 q 147 125 147 119 l 147 432 l 136 432 l 136 539 l 254 539 l 254 118 q 219 33 254 68 q 135 -3 184 -3 q 49 33 85 -3 q 14 118 14 68 l 14 854 q 49 940 14 904 q 135 975 85 975 z "},"H":{"ha":268,"x_min":14,"x_max":254,"o":"m 147 972 l 254 972 l 254 0 l 147 0 l 147 432 l 121 432 l 121 0 l 14 0 l 14 972 l 121 972 l 121 541 l 147 541 l 147 972 z "},"I":{"ha":134,"x_min":14,"x_max":121,"o":"m 14 0 l 14 972 l 121 972 l 121 0 l 14 0 z "},"J":{"ha":268,"x_min":14,"x_max":254,"o":"m 147 125 l 147 972 l 254 972 l 254 118 q 219 33 254 68 q 135 -3 184 -3 q 49 33 85 -3 q 14 118 14 68 l 14 432 l 121 432 l 121 125 q 125 116 121 119 q 135 113 129 113 q 143 116 140 113 q 147 125 147 119 z "},"K":{"ha":302,"x_min":14,"x_max":296,"o":"m 186 972 l 296 972 l 228 486 l 296 0 l 186 0 l 131 429 l 121 429 l 121 0 l 14 0 l 14 972 l 121 972 l 121 543 l 131 543 l 186 972 z "},"L":{"ha":222,"x_min":14,"x_max":215,"o":"m 14 972 l 121 972 l 121 115 l 215 115 l 215 0 l 14 0 l 14 972 z "},"M":{"ha":420,"x_min":14,"x_max":407,"o":"m 243 972 l 407 972 l 407 0 l 300 0 l 300 754 l 290 754 l 264 0 l 157 0 l 131 754 l 121 754 l 121 0 l 14 0 l 14 972 l 178 972 l 205 218 l 215 218 l 243 972 z "},"N":{"ha":294,"x_min":14,"x_max":281,"o":"m 172 972 l 281 972 l 281 0 l 172 0 l 132 559 l 122 559 l 122 0 l 14 0 l 14 972 l 122 972 l 163 412 l 172 412 l 172 972 z "},"O":{"ha":268,"x_min":14,"x_max":254,"o":"m 135 975 q 219 940 184 975 q 254 854 254 905 l 254 118 q 219 33 254 68 q 135 -3 184 -3 q 49 33 85 -3 q 14 118 14 68 l 14 854 q 49 940 14 904 q 135 975 85 975 m 147 125 l 147 847 q 143 856 147 852 q 135 860 140 860 q 125 856 129 860 q 121 847 121 852 l 121 125 q 125 116 121 119 q 135 113 129 113 q 143 116 140 113 q 147 125 147 119 z "},"P":{"ha":264,"x_min":14,"x_max":254,"o":"m 14 0 l 14 972 l 135 972 q 219 937 184 972 q 254 851 254 901 l 254 505 q 219 420 254 455 q 135 385 184 385 l 111 385 l 111 0 l 14 0 m 121 500 l 135 500 q 143 504 140 500 q 147 513 147 507 l 147 844 q 143 853 147 850 q 135 857 140 857 l 121 857 l 121 500 z "},"Q":{"ha":268,"x_min":14,"x_max":254,"o":"m 135 975 q 219 941 184 975 q 254 856 254 906 l 254 118 q 215 29 254 64 l 236 -50 l 150 -50 l 138 -3 l 135 -3 q 49 33 85 -3 q 14 118 14 68 l 14 856 q 49 940 14 905 q 135 975 85 975 m 147 126 l 147 846 q 143 856 147 851 q 135 860 140 860 q 125 856 129 860 q 121 846 121 851 l 121 126 q 135 113 121 113 q 147 126 147 113 z "},"R":{"ha":268,"x_min":14,"x_max":254,"o":"m 111 0 l 14 0 l 14 972 l 135 972 q 219 937 184 972 q 254 851 254 901 l 254 504 q 221 422 254 456 l 254 0 l 151 0 l 121 385 l 111 385 l 111 0 m 147 513 l 147 844 q 143 853 147 850 q 135 857 140 857 l 121 857 l 121 500 l 135 500 q 143 504 140 500 q 147 513 147 507 z "},"S":{"ha":268,"x_min":14,"x_max":254,"o":"m 14 575 l 14 854 q 49 940 14 904 q 135 975 85 975 q 219 940 184 975 q 254 854 254 905 l 254 587 l 147 587 l 147 847 q 143 856 147 852 q 135 860 140 860 q 125 856 129 860 q 121 847 121 852 l 121 587 q 129 562 121 574 q 146 541 138 549 q 172 521 155 534 q 215 486 201 500 q 242 449 230 473 q 254 397 254 426 l 254 118 q 219 33 254 68 q 135 -3 184 -3 q 49 33 85 -3 q 14 118 14 68 l 14 383 l 121 383 l 121 125 q 125 116 121 119 q 135 113 129 113 q 143 116 140 113 q 147 125 147 119 l 147 383 q 136 413 147 399 q 94 450 125 427 q 65 473 75 465 q 41 498 55 481 q 20 533 26 514 q 14 575 14 552 z "},"T":{"ha":215,"x_min":7,"x_max":208,"o":"m 7 972 l 208 972 l 208 857 l 161 857 l 161 0 l 54 0 l 54 857 l 7 857 l 7 972 z "},"U":{"ha":268,"x_min":14,"x_max":254,"o":"m 147 972 l 254 972 l 254 118 q 219 33 254 68 q 135 -3 184 -3 q 49 33 85 -3 q 14 118 14 68 l 14 972 l 121 972 l 121 125 q 125 116 121 119 q 135 113 129 113 q 143 116 140 113 q 147 125 147 119 l 147 972 z "},"V":{"ha":271,"x_min":9,"x_max":261,"o":"m 153 972 l 261 972 l 254 571 l 222 0 l 49 0 l 17 571 l 9 972 l 118 972 l 131 142 l 140 142 l 153 972 z "},"W":{"ha":412,"x_min":9,"x_max":403,"o":"m 296 972 l 403 972 l 397 571 l 364 0 l 239 0 l 211 754 l 201 754 l 174 0 l 49 0 l 17 571 l 9 972 l 118 972 l 131 218 l 140 218 l 153 972 l 260 972 l 272 218 l 282 218 l 296 972 z "},"X":{"ha":271,"x_min":9,"x_max":261,"o":"m 153 972 l 261 972 l 254 779 l 214 486 l 254 193 l 261 0 l 153 0 l 140 415 l 131 415 l 118 0 l 9 0 l 17 193 l 57 486 l 17 779 l 9 972 l 118 972 l 131 557 l 140 557 l 153 972 z "},"Y":{"ha":271,"x_min":9,"x_max":261,"o":"m 153 972 l 261 972 l 254 720 l 215 371 l 189 371 l 189 0 l 82 0 l 82 371 l 56 371 l 17 720 l 9 972 l 118 972 l 131 486 l 140 486 l 153 972 z "},"Z":{"ha":254,"x_min":7,"x_max":248,"o":"m 7 972 l 248 972 l 248 878 l 114 107 l 248 107 l 248 0 l 7 0 l 7 94 l 140 865 l 7 865 l 7 972 z "},"[":{"ha":168,"x_min":18,"x_max":150,"o":"m 18 1007 l 150 1007 l 150 972 l 53 972 l 53 0 l 150 0 l 150 -35 l 18 -35 l 18 1007 z "},"\\":{"ha":268,"x_min":14,"x_max":254,"o":"m 50 972 l 254 0 l 218 0 l 14 972 l 50 972 z "},"]":{"ha":168,"x_min":18,"x_max":150,"o":"m 150 1007 l 150 -35 l 18 -35 l 18 0 l 115 0 l 115 972 l 18 972 l 18 1007 l 150 1007 z "},"^":{"ha":197,"x_min":18,"x_max":179,"o":"m 77 972 l 121 972 l 179 694 l 143 694 l 98 905 l 54 694 l 18 694 l 77 972 z "},"_":{"ha":268,"x_min":14,"x_max":254,"o":"m 254 -107 l 14 -107 l 14 0 l 254 0 l 254 -107 z "},"a":{"ha":268,"x_min":14,"x_max":254,"o":"m 14 66 l 14 380 q 32 427 14 408 q 77 446 51 446 q 120 427 102 446 q 138 380 138 408 l 138 376 l 147 376 l 147 570 q 143 578 147 575 q 135 582 140 582 q 125 578 129 582 q 121 570 121 575 l 121 485 l 14 485 l 14 576 q 49 662 14 626 q 135 697 85 697 q 219 662 184 697 q 254 576 254 627 l 254 0 l 157 0 l 157 66 l 147 66 q 128 18 147 38 q 81 -3 109 -3 q 34 18 54 -3 q 14 66 14 39 m 121 317 l 121 126 q 135 113 121 113 q 147 126 147 113 l 147 317 q 143 326 147 322 q 135 330 140 330 q 125 326 129 330 q 121 317 121 322 z "},"b":{"ha":268,"x_min":14,"x_max":254,"o":"m 187 -3 q 140 18 160 -3 q 121 66 121 39 l 111 66 l 111 0 l 14 0 l 14 972 l 111 972 l 111 628 l 121 628 q 140 677 121 656 q 187 697 160 697 q 235 677 215 697 q 254 628 254 657 l 254 66 q 235 18 254 38 q 187 -3 215 -3 m 135 113 q 147 126 147 113 l 147 568 q 135 582 147 582 q 121 568 121 582 l 121 126 q 135 113 121 113 z "},"c":{"ha":268,"x_min":14,"x_max":254,"o":"m 135 697 q 219 662 184 697 q 254 576 254 627 l 254 400 l 147 400 l 147 570 q 143 578 147 575 q 135 582 140 582 q 125 578 129 582 q 121 570 121 575 l 121 125 q 125 116 121 119 q 135 113 129 113 q 143 116 140 113 q 147 125 147 119 l 147 293 l 254 293 l 254 118 q 219 33 254 68 q 135 -3 184 -3 q 49 33 85 -3 q 14 118 14 68 l 14 576 q 49 662 14 626 q 135 697 85 697 z "},"d":{"ha":268,"x_min":14,"x_max":254,"o":"m 81 -3 q 33 18 53 -3 q 14 66 14 38 l 14 628 q 33 677 14 657 q 81 697 53 697 q 127 677 108 697 q 147 628 147 656 l 157 628 l 157 972 l 254 972 l 254 0 l 157 0 l 157 66 l 147 66 q 127 18 147 39 q 81 -3 108 -3 m 134 113 q 147 126 147 113 l 147 568 q 134 582 147 582 q 124 578 128 582 q 121 568 121 574 l 121 126 q 124 116 121 120 q 134 113 128 113 z "},"e":{"ha":268,"x_min":14,"x_max":254,"o":"m 147 252 l 254 252 l 254 118 q 219 33 254 68 q 135 -3 184 -3 q 49 33 85 -3 q 14 118 14 68 l 14 576 q 49 662 14 626 q 135 697 85 697 q 219 662 184 697 q 254 576 254 627 l 254 293 l 121 293 l 121 125 q 125 116 121 119 q 135 113 129 113 q 143 116 140 113 q 147 125 147 119 l 147 252 m 147 570 q 143 578 147 575 q 135 582 140 582 q 125 578 129 582 q 121 570 121 575 l 121 400 l 147 400 l 147 570 z "},"f":{"ha":186,"x_min":7,"x_max":179,"o":"m 140 844 l 140 694 l 178 694 l 178 587 l 140 587 l 140 0 l 33 0 l 33 587 l 7 587 l 7 694 l 33 694 l 33 897 q 55 950 33 928 q 109 972 77 972 l 179 972 l 179 857 l 154 857 q 144 853 148 857 q 140 844 140 850 z "},"g":{"ha":268,"x_min":14,"x_max":254,"o":"m 14 61 l 14 627 q 34 676 14 656 q 81 697 54 697 q 128 676 109 697 q 147 627 147 656 l 157 627 l 157 694 l 254 694 l 254 -118 q 219 -203 254 -168 q 135 -239 184 -239 q 49 -203 85 -239 q 14 -118 14 -168 l 14 -41 l 121 -41 l 121 -111 q 125 -120 121 -117 q 135 -123 129 -123 q 143 -120 140 -123 q 147 -111 147 -117 l 147 66 l 138 66 l 138 61 q 120 16 138 35 q 77 -3 102 -3 q 32 16 50 -3 q 14 61 14 34 m 121 568 l 121 126 q 125 117 121 121 q 135 113 129 113 q 143 117 140 113 q 147 126 147 121 l 147 568 q 143 578 147 574 q 135 582 140 582 q 125 578 129 582 q 121 568 121 574 z "},"h":{"ha":268,"x_min":14,"x_max":254,"o":"m 254 627 l 254 0 l 147 0 l 147 568 q 143 578 147 574 q 135 582 140 582 q 125 578 129 582 q 121 568 121 574 l 121 0 l 14 0 l 14 972 l 111 972 l 111 627 l 121 627 q 140 676 121 656 q 187 697 160 697 q 235 676 215 697 q 254 627 254 656 z "},"i":{"ha":134,"x_min":14,"x_max":121,"o":"m 14 722 l 14 889 l 121 889 l 121 722 l 14 722 m 14 0 l 14 694 l 121 694 l 121 0 l 14 0 z "},"j":{"ha":134,"x_min":-26,"x_max":121,"o":"m 14 722 l 14 889 l 121 889 l 121 722 l 14 722 m -26 -129 l 14 -129 l 14 694 l 121 694 l 121 -161 q 99 -214 121 -193 q 46 -236 77 -236 l -26 -236 l -26 -129 z "},"k":{"ha":281,"x_min":14,"x_max":275,"o":"m 14 972 l 121 972 l 121 401 l 131 401 l 167 694 l 275 694 l 232 347 l 275 0 l 167 0 l 131 293 l 121 293 l 121 0 l 14 0 l 14 972 z "},"l":{"ha":134,"x_min":14,"x_max":121,"o":"m 14 0 l 14 972 l 121 972 l 121 0 l 14 0 z "},"m":{"ha":402,"x_min":14,"x_max":389,"o":"m 254 568 l 254 0 l 147 0 l 147 568 q 143 578 147 574 q 135 582 140 582 q 125 578 129 582 q 121 568 121 574 l 121 0 l 14 0 l 14 694 l 111 694 l 111 627 l 121 627 q 140 676 121 654 q 186 697 159 697 q 231 676 212 697 q 250 627 250 654 l 260 627 q 278 676 260 654 q 323 697 297 697 q 369 676 350 697 q 389 627 389 655 l 389 0 l 281 0 l 281 568 q 277 578 281 574 q 268 582 273 582 q 259 578 263 582 q 254 568 254 574 z "},"n":{"ha":268,"x_min":14,"x_max":254,"o":"m 254 627 l 254 0 l 147 0 l 147 568 q 143 578 147 574 q 135 582 140 582 q 125 578 129 582 q 121 568 121 574 l 121 0 l 14 0 l 14 694 l 111 694 l 111 627 l 121 627 q 140 676 121 656 q 187 697 160 697 q 235 676 215 697 q 254 627 254 656 z "},"o":{"ha":268,"x_min":14,"x_max":254,"o":"m 135 697 q 219 662 184 697 q 254 576 254 627 l 254 118 q 219 33 254 68 q 135 -3 184 -3 q 49 33 85 -3 q 14 118 14 68 l 14 576 q 49 662 14 626 q 135 697 85 697 m 147 125 l 147 570 q 143 578 147 575 q 135 582 140 582 q 125 578 129 582 q 121 570 121 575 l 121 125 q 125 116 121 119 q 135 113 129 113 q 143 116 140 113 q 147 125 147 119 z "},"p":{"ha":268,"x_min":14,"x_max":254,"o":"m 254 66 q 235 17 254 37 q 187 -3 215 -3 q 140 18 160 -3 q 121 66 121 38 l 111 66 l 111 -236 l 14 -236 l 14 694 l 111 694 l 111 628 l 121 628 q 140 677 121 656 q 187 697 160 697 q 235 677 215 697 q 254 628 254 657 l 254 66 m 147 126 l 147 567 q 135 581 147 581 q 121 567 121 581 l 121 126 q 135 113 121 113 q 147 126 147 113 z "},"q":{"ha":268,"x_min":14,"x_max":254,"o":"m 14 66 l 14 628 q 33 677 14 657 q 81 697 53 697 q 127 677 108 697 q 147 628 147 656 l 157 628 l 157 694 l 254 694 l 254 -236 l 157 -236 l 157 66 l 147 66 q 127 18 147 38 q 81 -3 108 -3 q 33 17 53 -3 q 14 66 14 37 m 121 126 q 124 116 121 120 q 134 113 128 113 q 147 126 147 113 l 147 567 q 134 581 147 581 q 124 577 128 581 q 121 567 121 573 l 121 126 z "},"r":{"ha":264,"x_min":14,"x_max":254,"o":"m 254 627 l 254 376 l 147 376 l 147 568 q 143 578 147 574 q 135 582 140 582 q 125 578 129 582 q 121 568 121 574 l 121 0 l 14 0 l 14 694 l 111 694 l 111 627 l 121 627 q 140 676 121 656 q 187 697 160 697 q 235 676 215 697 q 254 627 254 656 z "},"s":{"ha":268,"x_min":14,"x_max":254,"o":"m 14 435 l 14 576 q 49 662 14 626 q 135 697 85 697 q 219 662 184 697 q 254 576 254 627 l 254 449 l 147 449 l 147 570 q 143 578 147 575 q 135 582 140 582 q 125 578 129 582 q 121 570 121 575 l 121 449 q 129 423 121 436 q 146 402 137 410 q 172 382 155 394 q 215 347 201 361 q 242 310 230 334 q 254 258 254 287 l 254 118 q 219 33 254 68 q 135 -3 184 -3 q 49 33 85 -3 q 14 118 14 68 l 14 244 l 121 244 l 121 125 q 125 116 121 119 q 135 113 129 113 q 143 116 140 113 q 147 125 147 119 l 147 244 q 139 270 147 257 q 122 291 131 283 q 96 311 113 299 q 53 346 67 332 q 26 383 38 359 q 14 435 14 406 z "},"t":{"ha":187,"x_min":7,"x_max":180,"o":"m 179 587 l 140 587 l 140 115 l 180 115 l 180 0 l 109 0 q 55 22 77 0 q 33 75 33 44 l 33 587 l 7 587 l 7 694 l 33 694 l 33 903 l 140 930 l 140 694 l 179 694 l 179 587 z "},"u":{"ha":268,"x_min":14,"x_max":254,"o":"m 147 126 l 147 694 l 254 694 l 254 0 l 157 0 l 157 66 l 147 66 q 128 18 147 38 q 81 -3 109 -3 q 34 18 54 -3 q 14 66 14 39 l 14 694 l 121 694 l 121 126 q 135 113 121 113 q 147 126 147 113 z "},"v":{"ha":271,"x_min":9,"x_max":261,"o":"m 153 694 l 261 694 l 254 408 l 222 0 l 49 0 l 17 408 l 9 694 l 118 694 l 131 122 l 140 122 l 153 694 z "},"w":{"ha":404,"x_min":9,"x_max":395,"o":"m 256 694 l 268 122 l 278 122 l 286 694 l 395 694 l 387 408 l 359 0 l 235 0 l 207 519 l 197 519 l 170 0 l 45 0 l 17 408 l 9 694 l 118 694 l 126 122 l 136 122 l 149 694 l 256 694 z "},"x":{"ha":265,"x_min":7,"x_max":258,"o":"m 150 694 l 258 694 l 222 347 l 258 0 l 150 0 l 138 286 l 127 286 l 115 0 l 7 0 l 41 347 l 7 694 l 115 694 l 127 408 l 138 408 l 150 694 z "},"y":{"ha":268,"x_min":14,"x_max":254,"o":"m 147 694 l 254 694 l 254 -118 q 219 -203 254 -168 q 135 -239 184 -239 q 49 -203 85 -239 q 14 -118 14 -168 l 14 -41 l 121 -41 l 121 -111 q 125 -120 121 -117 q 135 -123 129 -123 q 143 -120 140 -123 q 147 -111 147 -117 l 147 66 l 138 66 l 138 61 q 120 16 138 35 q 77 -3 102 -3 q 32 16 50 -3 q 14 61 14 34 l 14 694 l 121 694 l 121 126 q 125 117 121 121 q 135 113 129 113 q 143 117 140 113 q 147 126 147 121 l 147 694 z "},"z":{"ha":254,"x_min":7,"x_max":248,"o":"m 7 694 l 248 694 l 248 600 l 118 107 l 248 107 l 248 0 l 7 0 l 7 94 l 138 587 l 7 587 l 7 694 z "},"{":{"ha":262,"x_min":18,"x_max":244,"o":"m 224 1007 l 244 1007 l 244 972 l 224 972 q 164 947 189 972 q 139 886 139 922 l 139 589 q 123 530 139 557 q 81 486 107 503 q 123 443 107 470 q 139 383 139 415 l 139 86 q 164 25 139 50 q 224 0 189 0 l 244 0 l 244 -35 l 224 -35 q 140 1 175 -35 q 104 86 104 37 l 104 383 q 79 443 104 418 q 18 468 54 468 l 18 503 q 79 528 54 503 q 104 589 104 553 l 104 886 q 140 971 104 936 q 224 1007 175 1007 z "},"|":{"ha":71,"x_min":18,"x_max":53,"o":"m 18 -49 l 18 1021 l 53 1021 l 53 -49 l 18 -49 z "},"}":{"ha":262,"x_min":18,"x_max":244,"o":"m 39 1007 q 123 971 87 1007 q 158 886 158 936 l 158 589 q 183 528 158 553 q 244 503 209 503 l 244 468 q 183 443 208 468 q 158 383 158 418 l 158 86 q 123 1 158 37 q 39 -35 87 -35 l 18 -35 l 18 0 l 39 0 q 99 25 74 0 q 123 86 123 50 l 123 383 q 139 443 123 415 q 182 486 155 470 q 139 530 155 503 q 123 589 123 557 l 123 886 q 99 947 123 922 q 39 972 74 972 l 18 972 l 18 1007 l 39 1007 z "},"~":{"ha":315,"x_min":14,"x_max":301,"o":"m 14 408 l 31 425 q 100 454 60 454 q 170 425 142 454 q 215 407 188 407 q 260 425 241 407 l 277 443 l 301 418 l 285 401 q 215 372 256 372 q 146 401 175 372 q 102 421 126 421 q 56 401 75 421 l 39 383 l 14 408 z "},"¡":{"ha":134,"x_min":14,"x_max":121,"o":"m 14 806 l 14 972 l 121 972 l 121 806 l 14 806 m 14 0 l 14 778 l 121 778 l 121 0 l 14 0 z "},"¢":{"ha":268,"x_min":14,"x_max":254,"o":"m 117 696 l 117 743 l 151 743 l 151 696 q 225 656 195 690 q 254 576 254 622 l 254 400 l 147 400 l 147 570 q 143 578 147 575 q 135 582 140 582 q 125 578 129 582 q 121 570 121 575 l 121 125 q 125 116 121 119 q 135 113 129 113 q 143 116 140 113 q 147 125 147 119 l 147 293 l 254 293 l 254 118 q 225 39 254 73 q 151 -1 195 5 l 151 -49 l 117 -49 l 117 -1 q 43 39 73 5 q 14 118 14 73 l 14 576 q 43 656 14 622 q 117 696 73 690 z "},"£":{"ha":296,"x_min":14,"x_max":282,"o":"m 282 0 l 14 0 l 14 107 l 41 107 l 41 390 l 14 390 l 14 497 l 41 497 l 41 854 q 77 940 41 904 q 163 975 113 975 q 247 940 212 975 q 282 854 282 905 l 282 694 l 175 694 l 175 847 q 171 856 175 852 q 163 860 168 860 q 153 856 157 860 q 149 847 149 852 l 149 497 l 203 497 l 203 390 l 149 390 l 149 107 l 282 107 l 282 0 z "},"¤":{"ha":296,"x_min":18,"x_max":278,"o":"m 147 608 q 225 582 193 608 l 248 623 l 278 604 l 249 554 q 268 489 268 524 l 268 340 q 249 275 268 304 l 278 225 l 248 207 l 225 248 q 147 220 191 220 q 71 248 105 220 l 49 207 l 18 225 l 47 275 q 28 340 28 304 l 28 489 q 47 554 28 522 l 18 604 l 49 623 l 71 582 q 147 608 103 608 m 161 349 l 161 481 q 157 490 161 486 q 147 494 153 494 q 139 490 142 494 q 135 481 135 486 l 135 349 q 147 335 135 335 q 161 349 161 335 z "},"¥":{"ha":271,"x_min":9,"x_max":261,"o":"m 153 972 l 261 972 l 254 720 l 215 371 l 236 371 l 236 264 l 189 264 l 189 212 l 236 212 l 236 106 l 189 106 l 189 0 l 82 0 l 82 106 l 35 106 l 35 212 l 82 212 l 82 264 l 35 264 l 35 371 l 56 371 l 17 720 l 9 972 l 118 972 l 131 486 l 140 486 l 153 972 z "},"¦":{"ha":71,"x_min":18,"x_max":53,"o":"m 53 541 l 18 541 l 18 1021 l 53 1021 l 53 541 m 18 433 l 53 433 l 53 -49 l 18 -49 l 18 433 z "},"§":{"ha":268,"x_min":14,"x_max":254,"o":"m 14 741 l 14 854 q 49 940 14 904 q 135 975 85 975 q 219 940 184 975 q 254 854 254 905 l 254 754 l 147 754 l 147 847 q 143 856 147 852 q 135 860 140 860 q 125 856 129 860 q 121 847 121 852 l 121 754 q 129 728 121 741 q 146 708 138 715 q 172 688 155 701 q 215 653 200 667 q 242 615 230 639 q 254 564 254 592 l 254 414 q 212 322 254 357 q 254 231 254 282 l 254 118 q 219 33 254 68 q 135 -3 184 -3 q 49 33 85 -3 q 14 118 14 68 l 14 216 l 121 216 l 121 125 q 125 116 121 119 q 135 113 129 113 q 143 116 140 113 q 147 125 147 119 l 147 216 q 139 242 147 229 q 122 263 131 255 q 96 283 113 271 q 53 318 67 304 q 26 355 38 332 q 14 407 14 378 l 14 558 q 56 650 14 612 q 14 741 14 690 m 147 553 q 143 560 147 557 q 135 564 140 564 q 121 551 121 564 l 121 421 q 135 408 121 408 q 143 412 140 408 q 147 421 147 416 l 147 553 z "},"©":{"ha":351,"x_min":18,"x_max":334,"o":"m 334 817 l 334 155 q 288 43 334 90 q 176 -3 241 -3 q 64 43 111 -3 q 18 155 18 90 l 18 817 q 64 929 18 882 q 176 975 111 975 q 287 929 241 975 q 334 817 334 882 m 53 817 l 53 155 q 89 68 53 104 q 176 32 125 32 q 263 68 227 32 q 298 155 298 104 l 298 817 q 263 904 298 867 q 176 940 227 940 q 89 904 125 940 q 53 817 53 867 m 176 873 q 231 849 208 873 q 253 794 253 825 l 253 541 l 184 541 l 184 790 q 176 798 184 798 q 170 795 173 798 q 167 790 167 793 l 167 182 q 176 175 167 175 q 184 182 184 175 l 184 433 l 253 433 l 253 178 q 231 123 253 146 q 176 100 208 100 q 121 123 143 100 q 98 178 98 146 l 98 794 q 121 850 98 826 q 176 873 144 873 z "},"«":{"ha":297,"x_min":18,"x_max":279,"o":"m 256 273 l 115 412 l 256 553 l 279 529 l 164 412 l 278 297 l 256 273 m 158 273 l 18 412 l 158 553 l 182 529 l 66 412 l 180 297 l 158 273 z "},"¬":{"ha":268,"x_min":14,"x_max":254,"o":"m 147 273 l 147 361 l 14 361 l 14 468 l 254 468 l 254 273 l 147 273 z "},"®":{"ha":351,"x_min":18,"x_max":334,"o":"m 334 817 l 334 155 q 288 43 334 90 q 176 -3 241 -3 q 64 43 111 -3 q 18 155 18 90 l 18 817 q 64 929 18 882 q 176 975 111 975 q 287 929 241 975 q 334 817 334 882 m 53 817 l 53 155 q 89 68 53 104 q 176 32 125 32 q 263 68 227 32 q 298 155 298 104 l 298 817 q 263 904 298 867 q 176 940 227 940 q 89 904 125 940 q 53 817 53 867 m 160 100 l 98 100 l 98 872 l 176 872 q 231 849 208 872 q 253 791 253 825 l 253 525 q 231 472 253 492 l 253 100 l 187 100 l 171 450 l 160 450 l 160 100 m 184 532 l 184 789 q 182 794 184 791 q 178 798 180 798 l 167 798 l 167 522 l 178 522 q 184 532 184 522 z "},"°":{"ha":218,"x_min":14,"x_max":204,"o":"m 110 975 q 176 947 149 975 q 204 879 204 918 l 204 786 q 176 720 204 747 q 110 692 149 692 q 42 720 71 692 q 14 786 14 747 l 14 879 q 42 947 14 918 q 110 975 71 975 m 119 793 l 119 873 q 117 881 119 878 q 110 885 114 885 q 102 881 105 885 q 98 873 98 878 l 98 793 q 110 782 98 782 q 119 793 119 782 z "},"±":{"ha":229,"x_min":14,"x_max":215,"o":"m 14 541 l 66 541 l 66 642 l 163 642 l 163 541 l 215 541 l 215 433 l 163 433 l 163 330 l 66 330 l 66 433 l 14 433 l 14 541 m 14 279 l 215 279 l 215 172 l 14 172 l 14 279 z "},"¶":{"ha":311,"x_min":14,"x_max":297,"o":"m 212 0 l 212 865 l 186 865 l 186 0 l 109 0 l 109 385 q 41 413 69 385 q 14 481 14 441 l 14 876 q 41 944 14 916 q 109 972 69 972 l 297 972 l 297 0 l 212 0 z "},"·":{"ha":142,"x_min":18,"x_max":125,"o":"m 18 326 l 18 493 l 125 493 l 125 326 l 18 326 z "},"»":{"ha":297,"x_min":18,"x_max":279,"o":"m 41 273 l 20 297 l 134 412 l 18 529 l 41 553 l 182 412 l 41 273 m 139 273 l 117 297 l 231 412 l 115 529 l 139 553 l 279 412 l 139 273 z "},"¿":{"ha":268,"x_min":14,"x_max":254,"o":"m 187 808 l 81 808 l 81 975 l 187 975 l 187 808 m 81 781 l 187 781 l 187 647 q 178 585 187 610 q 147 526 170 559 q 121 457 121 486 l 121 127 q 125 119 121 122 q 135 115 129 115 q 143 119 140 115 q 147 127 147 122 l 147 387 l 254 387 l 254 121 q 219 35 254 71 q 135 0 184 0 q 49 36 85 0 q 14 121 14 71 l 14 456 q 23 520 14 493 q 58 586 33 547 q 81 647 81 622 l 81 781 z "},"À":{"ha":264,"x_min":7,"x_max":257,"o":"m 135 1028 l 93 1168 l 129 1168 l 171 1028 l 135 1028 m 46 972 l 220 972 l 257 107 l 257 0 l 151 0 l 146 278 l 118 278 l 113 0 l 7 0 l 7 107 l 46 972 m 127 831 l 119 385 l 144 385 l 138 831 l 127 831 z "},"Á":{"ha":264,"x_min":7,"x_max":257,"o":"m 129 1028 l 93 1028 l 135 1168 l 171 1168 l 129 1028 m 46 972 l 220 972 l 257 107 l 257 0 l 151 0 l 146 278 l 118 278 l 113 0 l 7 0 l 7 107 l 46 972 m 127 831 l 119 385 l 144 385 l 138 831 l 127 831 z "},"Â":{"ha":264,"x_min":7,"x_max":257,"o":"m 50 1053 l 132 1135 l 215 1053 l 191 1028 l 132 1086 l 75 1028 l 50 1053 m 46 972 l 220 972 l 257 107 l 257 0 l 151 0 l 146 278 l 118 278 l 113 0 l 7 0 l 7 107 l 46 972 m 127 831 l 119 385 l 144 385 l 138 831 l 127 831 z "},"Ã":{"ha":264,"x_min":4,"x_max":258,"o":"m 29 1022 l 4 1047 l 21 1064 q 83 1089 48 1089 q 140 1067 118 1089 q 182 1048 159 1048 q 216 1064 201 1048 l 233 1080 l 258 1057 l 241 1039 q 179 1014 216 1014 q 122 1036 144 1014 q 82 1054 104 1054 q 46 1039 61 1054 l 29 1022 m 46 972 l 220 972 l 257 107 l 257 0 l 151 0 l 146 278 l 118 278 l 113 0 l 7 0 l 7 107 l 46 972 m 127 831 l 119 385 l 144 385 l 138 831 l 127 831 z "},"Ä":{"ha":264,"x_min":7,"x_max":257,"o":"m 180 1156 l 252 1084 l 180 1014 l 132 1064 l 82 1014 l 11 1084 l 82 1156 l 132 1105 l 180 1156 m 153 1084 l 180 1057 l 210 1084 l 180 1112 l 153 1084 m 54 1084 l 82 1057 l 110 1084 l 82 1112 l 54 1084 m 46 972 l 220 972 l 257 107 l 257 0 l 151 0 l 146 278 l 118 278 l 113 0 l 7 0 l 7 107 l 46 972 m 127 831 l 119 385 l 144 385 l 138 831 l 127 831 z "},"Å":{"ha":264,"x_min":7,"x_max":257,"o":"m 65 1067 q 85 1114 65 1095 q 132 1133 105 1133 q 179 1114 160 1133 q 199 1067 199 1095 q 179 1020 199 1040 q 132 1000 160 1000 q 85 1020 105 1000 q 65 1067 65 1040 m 155 1044 q 160 1049 155 1044 q 164 1067 164 1053 q 155 1089 164 1080 q 132 1099 146 1099 q 109 1089 119 1099 q 100 1067 100 1080 q 109 1044 100 1053 q 132 1035 119 1035 q 155 1044 146 1035 m 46 972 l 220 972 l 257 107 l 257 0 l 151 0 l 146 278 l 118 278 l 113 0 l 7 0 l 7 107 l 46 972 m 127 831 l 119 385 l 144 385 l 138 831 l 127 831 z "},"Æ":{"ha":319,"x_min":7,"x_max":313,"o":"m 138 278 l 118 278 l 113 0 l 7 0 l 7 107 l 46 972 l 313 972 l 313 857 l 244 857 l 244 541 l 311 541 l 311 432 l 244 432 l 244 115 l 313 115 l 313 0 l 138 0 l 138 278 m 119 385 l 138 385 l 138 831 l 127 831 l 119 385 z "},"Ç":{"ha":268,"x_min":14,"x_max":254,"o":"m 135 975 q 219 940 184 975 q 254 854 254 905 l 254 539 l 147 539 l 147 847 q 143 856 147 852 q 135 860 140 860 q 125 856 129 860 q 121 847 121 852 l 121 125 q 125 116 121 119 q 135 113 129 113 q 143 116 140 113 q 147 125 147 119 l 147 432 l 254 432 l 254 118 q 225 39 254 73 q 153 -1 197 5 l 153 -29 q 188 -53 174 -35 q 201 -94 201 -71 q 182 -141 201 -121 q 135 -161 163 -161 q 88 -141 108 -161 q 68 -94 68 -121 l 103 -94 q 112 -117 103 -108 q 135 -126 121 -126 q 158 -117 149 -126 q 167 -94 167 -108 q 158 -72 167 -81 q 135 -62 149 -62 l 118 -62 l 118 -1 q 44 39 74 5 q 14 118 14 73 l 14 854 q 49 940 14 904 q 135 975 85 975 z "},"È":{"ha":195,"x_min":14,"x_max":189,"o":"m 102 1028 l 60 1168 l 96 1168 l 138 1028 l 102 1028 m 14 972 l 189 972 l 189 857 l 121 857 l 121 541 l 187 541 l 187 432 l 121 432 l 121 115 l 189 115 l 189 0 l 14 0 l 14 972 z "},"É":{"ha":195,"x_min":14,"x_max":189,"o":"m 96 1028 l 60 1028 l 102 1168 l 138 1168 l 96 1028 m 14 972 l 189 972 l 189 857 l 121 857 l 121 541 l 187 541 l 187 432 l 121 432 l 121 115 l 189 115 l 189 0 l 14 0 l 14 972 z "},"Ê":{"ha":195,"x_min":14,"x_max":189,"o":"m 16 1053 l 97 1135 l 180 1053 l 155 1028 l 97 1086 l 40 1028 l 16 1053 m 14 972 l 189 972 l 189 857 l 121 857 l 121 541 l 187 541 l 187 432 l 121 432 l 121 115 l 189 115 l 189 0 l 14 0 l 14 972 z "},"Ë":{"ha":195,"x_min":-22,"x_max":218,"o":"m 147 1156 l 218 1084 l 147 1014 l 98 1064 l 49 1014 l -22 1084 l 49 1156 l 98 1105 l 147 1156 m 119 1084 l 147 1057 l 176 1084 l 147 1112 l 119 1084 m 21 1084 l 49 1057 l 77 1084 l 49 1112 l 21 1084 m 14 972 l 189 972 l 189 857 l 121 857 l 121 541 l 187 541 l 187 432 l 121 432 l 121 115 l 189 115 l 189 0 l 14 0 l 14 972 z "},"Ì":{"ha":134,"x_min":14,"x_max":121,"o":"m 71 1028 l 29 1168 l 65 1168 l 107 1028 l 71 1028 m 14 0 l 14 972 l 121 972 l 121 0 l 14 0 z "},"Í":{"ha":134,"x_min":14,"x_max":121,"o":"m 65 1028 l 29 1028 l 71 1168 l 107 1168 l 65 1028 m 14 0 l 14 972 l 121 972 l 121 0 l 14 0 z "},"Î":{"ha":134,"x_min":-16,"x_max":150,"o":"m -16 1053 l 66 1135 l 150 1053 l 125 1028 l 66 1086 l 9 1028 l -16 1053 m 14 0 l 14 972 l 121 972 l 121 0 l 14 0 z "},"Ï":{"ha":134,"x_min":-53,"x_max":187,"o":"m 117 1156 l 187 1084 l 117 1014 l 68 1064 l 18 1014 l -53 1084 l 18 1156 l 68 1105 l 117 1156 m 89 1084 l 117 1057 l 146 1084 l 117 1112 l 89 1084 m -9 1084 l 18 1057 l 46 1084 l 18 1112 l -9 1084 m 14 0 l 14 972 l 121 972 l 121 0 l 14 0 z "},"Ð":{"ha":287,"x_min":7,"x_max":273,"o":"m 33 538 l 33 972 l 154 972 q 238 937 203 972 q 273 851 273 901 l 273 121 q 238 35 273 71 q 154 0 203 0 l 33 0 l 33 431 l 7 431 l 7 538 l 33 538 m 167 127 l 167 844 q 163 853 167 849 q 154 857 159 857 l 140 857 l 140 538 l 154 538 l 154 431 l 140 431 l 140 115 l 154 115 q 163 119 159 115 q 167 127 167 123 z "},"Ñ":{"ha":294,"x_min":14,"x_max":281,"o":"m 46 1022 l 21 1047 l 37 1064 q 100 1089 64 1089 q 157 1067 134 1089 q 199 1048 175 1048 q 233 1064 218 1048 l 250 1080 l 275 1057 l 258 1039 q 196 1014 233 1014 q 139 1036 161 1014 q 98 1054 121 1054 q 62 1039 77 1054 l 46 1022 m 172 972 l 281 972 l 281 0 l 172 0 l 132 559 l 122 559 l 122 0 l 14 0 l 14 972 l 122 972 l 163 412 l 172 412 l 172 972 z "},"Ò":{"ha":268,"x_min":14,"x_max":254,"o":"m 138 1028 l 96 1168 l 132 1168 l 174 1028 l 138 1028 m 135 975 q 219 940 184 975 q 254 854 254 905 l 254 118 q 219 33 254 68 q 135 -3 184 -3 q 49 33 85 -3 q 14 118 14 68 l 14 854 q 49 940 14 904 q 135 975 85 975 m 147 125 l 147 847 q 143 856 147 852 q 135 860 140 860 q 125 856 129 860 q 121 847 121 852 l 121 125 q 125 116 121 119 q 135 113 129 113 q 143 116 140 113 q 147 125 147 119 z "},"Ó":{"ha":268,"x_min":14,"x_max":254,"o":"m 132 1028 l 96 1028 l 138 1168 l 174 1168 l 132 1028 m 135 975 q 219 940 184 975 q 254 854 254 905 l 254 118 q 219 33 254 68 q 135 -3 184 -3 q 49 33 85 -3 q 14 118 14 68 l 14 854 q 49 940 14 904 q 135 975 85 975 m 147 125 l 147 847 q 143 856 147 852 q 135 860 140 860 q 125 856 129 860 q 121 847 121 852 l 121 125 q 125 116 121 119 q 135 113 129 113 q 143 116 140 113 q 147 125 147 119 z "},"Ô":{"ha":268,"x_min":14,"x_max":254,"o":"m 52 1053 l 134 1135 l 216 1053 l 192 1028 l 134 1086 l 77 1028 l 52 1053 m 135 975 q 219 940 184 975 q 254 854 254 905 l 254 118 q 219 33 254 68 q 135 -3 184 -3 q 49 33 85 -3 q 14 118 14 68 l 14 854 q 49 940 14 904 q 135 975 85 975 m 147 125 l 147 847 q 143 856 147 852 q 135 860 140 860 q 125 856 129 860 q 121 847 121 852 l 121 125 q 125 116 121 119 q 135 113 129 113 q 143 116 140 113 q 147 125 147 119 z "},"Õ":{"ha":268,"x_min":7,"x_max":261,"o":"m 32 1022 l 7 1047 l 24 1064 q 86 1089 51 1089 q 143 1067 121 1089 q 184 1048 161 1048 q 220 1064 204 1048 l 236 1080 l 261 1057 l 244 1039 q 182 1014 219 1014 q 125 1036 147 1014 q 85 1054 107 1054 q 49 1039 64 1054 l 32 1022 m 135 975 q 219 940 184 975 q 254 854 254 905 l 254 118 q 219 33 254 68 q 135 -3 184 -3 q 49 33 85 -3 q 14 118 14 68 l 14 854 q 49 940 14 904 q 135 975 85 975 m 147 125 l 147 847 q 143 856 147 852 q 135 860 140 860 q 125 856 129 860 q 121 847 121 852 l 121 125 q 125 116 121 119 q 135 113 129 113 q 143 116 140 113 q 147 125 147 119 z "},"Ö":{"ha":268,"x_min":14,"x_max":254,"o":"m 183 1156 l 254 1084 l 183 1014 l 135 1064 l 85 1014 l 14 1084 l 85 1156 l 135 1105 l 183 1156 m 155 1084 l 183 1057 l 212 1084 l 183 1112 l 155 1084 m 57 1084 l 85 1057 l 113 1084 l 85 1112 l 57 1084 m 135 975 q 219 940 184 975 q 254 854 254 905 l 254 118 q 219 33 254 68 q 135 -3 184 -3 q 49 33 85 -3 q 14 118 14 68 l 14 854 q 49 940 14 904 q 135 975 85 975 m 147 125 l 147 847 q 143 856 147 852 q 135 860 140 860 q 125 856 129 860 q 121 847 121 852 l 121 125 q 125 116 121 119 q 135 113 129 113 q 143 116 140 113 q 147 125 147 119 z "},"×":{"ha":258,"x_min":14,"x_max":244,"o":"m 157 704 l 244 704 l 212 486 l 244 268 l 157 268 l 134 439 l 125 439 l 102 268 l 14 268 l 46 486 l 14 704 l 102 704 l 125 533 l 134 533 l 157 704 z "},"Ø":{"ha":268,"x_min":14,"x_max":254,"o":"m 135 975 q 212 946 179 975 l 218 972 l 254 972 l 241 909 q 254 854 254 882 l 254 118 q 219 33 254 68 q 135 -3 184 -3 q 56 26 89 -3 l 50 0 l 14 0 l 28 62 q 14 118 14 88 l 14 854 q 49 940 14 904 q 135 975 85 975 m 121 510 l 147 635 l 147 847 q 143 856 147 852 q 135 860 140 860 q 125 856 129 860 q 121 847 121 852 l 121 510 m 147 125 l 147 463 l 121 338 l 121 125 q 125 116 121 119 q 135 113 129 113 q 143 116 140 113 q 147 125 147 119 z "},"Ù":{"ha":268,"x_min":14,"x_max":254,"o":"m 138 1028 l 96 1168 l 132 1168 l 174 1028 l 138 1028 m 147 972 l 254 972 l 254 118 q 219 33 254 68 q 135 -3 184 -3 q 49 33 85 -3 q 14 118 14 68 l 14 972 l 121 972 l 121 125 q 125 116 121 119 q 135 113 129 113 q 143 116 140 113 q 147 125 147 119 l 147 972 z "},"Ú":{"ha":268,"x_min":14,"x_max":254,"o":"m 132 1028 l 96 1028 l 138 1168 l 174 1168 l 132 1028 m 147 972 l 254 972 l 254 118 q 219 33 254 68 q 135 -3 184 -3 q 49 33 85 -3 q 14 118 14 68 l 14 972 l 121 972 l 121 125 q 125 116 121 119 q 135 113 129 113 q 143 116 140 113 q 147 125 147 119 l 147 972 z "},"Û":{"ha":268,"x_min":14,"x_max":254,"o":"m 52 1053 l 134 1135 l 216 1053 l 192 1028 l 134 1086 l 77 1028 l 52 1053 m 147 972 l 254 972 l 254 118 q 219 33 254 68 q 135 -3 184 -3 q 49 33 85 -3 q 14 118 14 68 l 14 972 l 121 972 l 121 125 q 125 116 121 119 q 135 113 129 113 q 143 116 140 113 q 147 125 147 119 l 147 972 z "},"Ü":{"ha":268,"x_min":14,"x_max":254,"o":"m 183 1156 l 254 1084 l 183 1014 l 135 1064 l 85 1014 l 14 1084 l 85 1156 l 135 1105 l 183 1156 m 155 1084 l 183 1057 l 212 1084 l 183 1112 l 155 1084 m 57 1084 l 85 1057 l 113 1084 l 85 1112 l 57 1084 m 147 972 l 254 972 l 254 118 q 219 33 254 68 q 135 -3 184 -3 q 49 33 85 -3 q 14 118 14 68 l 14 972 l 121 972 l 121 125 q 125 116 121 119 q 135 113 129 113 q 143 116 140 113 q 147 125 147 119 l 147 972 z "},"Ý":{"ha":271,"x_min":9,"x_max":261,"o":"m 134 1028 l 97 1028 l 139 1168 l 175 1168 l 134 1028 m 153 972 l 261 972 l 254 720 l 215 371 l 189 371 l 189 0 l 82 0 l 82 371 l 56 371 l 17 720 l 9 972 l 118 972 l 131 486 l 140 486 l 153 972 z "},"Þ":{"ha":268,"x_min":14,"x_max":254,"o":"m 254 205 q 235 156 254 176 q 187 136 215 136 q 140 157 160 136 q 121 205 121 177 l 111 205 l 111 0 l 14 0 l 14 972 l 111 972 l 111 766 l 121 766 q 140 816 121 795 q 187 836 160 836 q 235 816 215 836 q 254 766 254 795 l 254 205 m 147 265 l 147 705 q 144 715 147 711 q 135 720 140 720 q 125 715 129 720 q 121 705 121 711 l 121 265 q 135 252 121 252 q 147 265 147 252 z "},"ß":{"ha":268,"x_min":14,"x_max":254,"o":"m 135 0 l 135 115 q 143 119 140 115 q 147 127 147 122 l 147 415 q 143 425 147 420 q 135 429 140 429 l 135 543 q 143 547 140 543 q 147 557 147 551 l 147 847 q 143 856 147 852 q 134 860 139 860 q 125 856 129 860 q 121 847 121 852 l 121 0 l 14 0 l 14 854 q 49 940 14 905 q 134 975 84 975 q 219 940 183 975 q 254 854 254 905 l 254 551 q 245 515 254 532 q 220 490 235 498 l 220 481 q 254 418 254 460 l 254 121 q 219 35 254 71 q 135 0 184 0 z "},"à":{"ha":268,"x_min":14,"x_max":254,"o":"m 138 750 l 96 890 l 132 890 l 174 750 l 138 750 m 14 66 l 14 380 q 32 427 14 408 q 77 446 51 446 q 120 427 102 446 q 138 380 138 408 l 138 376 l 147 376 l 147 570 q 143 578 147 575 q 135 582 140 582 q 125 578 129 582 q 121 570 121 575 l 121 485 l 14 485 l 14 576 q 49 662 14 626 q 135 697 85 697 q 219 662 184 697 q 254 576 254 627 l 254 0 l 157 0 l 157 66 l 147 66 q 128 18 147 38 q 81 -3 109 -3 q 34 18 54 -3 q 14 66 14 39 m 121 317 l 121 126 q 135 113 121 113 q 147 126 147 113 l 147 317 q 143 326 147 322 q 135 330 140 330 q 125 326 129 330 q 121 317 121 322 z "},"á":{"ha":268,"x_min":14,"x_max":254,"o":"m 132 750 l 96 750 l 138 890 l 174 890 l 132 750 m 14 66 l 14 380 q 32 427 14 408 q 77 446 51 446 q 120 427 102 446 q 138 380 138 408 l 138 376 l 147 376 l 147 570 q 143 578 147 575 q 135 582 140 582 q 125 578 129 582 q 121 570 121 575 l 121 485 l 14 485 l 14 576 q 49 662 14 626 q 135 697 85 697 q 219 662 184 697 q 254 576 254 627 l 254 0 l 157 0 l 157 66 l 147 66 q 128 18 147 38 q 81 -3 109 -3 q 34 18 54 -3 q 14 66 14 39 m 121 317 l 121 126 q 135 113 121 113 q 147 126 147 113 l 147 317 q 143 326 147 322 q 135 330 140 330 q 125 326 129 330 q 121 317 121 322 z "},"â":{"ha":268,"x_min":14,"x_max":254,"o":"m 52 775 l 134 857 l 216 775 l 192 750 l 134 808 l 77 750 l 52 775 m 14 66 l 14 380 q 32 427 14 408 q 77 446 51 446 q 120 427 102 446 q 138 380 138 408 l 138 376 l 147 376 l 147 570 q 143 578 147 575 q 135 582 140 582 q 125 578 129 582 q 121 570 121 575 l 121 485 l 14 485 l 14 576 q 49 662 14 626 q 135 697 85 697 q 219 662 184 697 q 254 576 254 627 l 254 0 l 157 0 l 157 66 l 147 66 q 128 18 147 38 q 81 -3 109 -3 q 34 18 54 -3 q 14 66 14 39 m 121 317 l 121 126 q 135 113 121 113 q 147 126 147 113 l 147 317 q 143 326 147 322 q 135 330 140 330 q 125 326 129 330 q 121 317 121 322 z "},"ã":{"ha":268,"x_min":7,"x_max":261,"o":"m 32 745 l 7 770 l 24 786 q 86 811 51 811 q 143 789 121 811 q 184 771 161 771 q 220 786 205 771 l 236 803 l 261 779 l 244 761 q 182 736 219 736 q 125 758 147 736 q 85 777 106 777 q 49 761 64 777 l 32 745 m 14 66 l 14 380 q 32 427 14 408 q 77 446 51 446 q 120 427 102 446 q 138 380 138 408 l 138 376 l 147 376 l 147 570 q 143 578 147 575 q 135 582 140 582 q 125 578 129 582 q 121 570 121 575 l 121 485 l 14 485 l 14 576 q 49 662 14 626 q 135 697 85 697 q 219 662 184 697 q 254 576 254 627 l 254 0 l 157 0 l 157 66 l 147 66 q 128 18 147 38 q 81 -3 109 -3 q 34 18 54 -3 q 14 66 14 39 m 121 317 l 121 126 q 135 113 121 113 q 147 126 147 113 l 147 317 q 143 326 147 322 q 135 330 140 330 q 125 326 129 330 q 121 317 121 322 z "},"ä":{"ha":268,"x_min":14,"x_max":254,"o":"m 183 878 l 254 807 l 183 736 l 135 786 l 85 736 l 14 807 l 85 878 l 135 828 l 183 878 m 155 807 l 183 779 l 212 807 l 183 835 l 155 807 m 57 807 l 85 779 l 113 807 l 85 835 l 57 807 m 14 66 l 14 380 q 32 427 14 408 q 77 446 51 446 q 120 427 102 446 q 138 380 138 408 l 138 376 l 147 376 l 147 570 q 143 578 147 575 q 135 582 140 582 q 125 578 129 582 q 121 570 121 575 l 121 485 l 14 485 l 14 576 q 49 662 14 626 q 135 697 85 697 q 219 662 184 697 q 254 576 254 627 l 254 0 l 157 0 l 157 66 l 147 66 q 128 18 147 38 q 81 -3 109 -3 q 34 18 54 -3 q 14 66 14 39 m 121 317 l 121 126 q 135 113 121 113 q 147 126 147 113 l 147 317 q 143 326 147 322 q 135 330 140 330 q 125 326 129 330 q 121 317 121 322 z "},"å":{"ha":268,"x_min":14,"x_max":254,"o":"m 68 789 q 88 836 68 817 q 135 856 108 856 q 182 836 163 856 q 201 789 201 817 q 182 742 201 762 q 135 722 163 722 q 88 742 108 722 q 68 789 68 762 m 158 766 q 162 771 158 766 q 167 789 167 775 q 158 811 167 802 q 135 821 149 821 q 112 811 121 821 q 103 789 103 802 q 112 766 103 775 q 135 757 121 757 q 158 766 149 757 m 14 66 l 14 380 q 32 427 14 408 q 77 446 51 446 q 120 427 102 446 q 138 380 138 408 l 138 376 l 147 376 l 147 570 q 143 578 147 575 q 135 582 140 582 q 125 578 129 582 q 121 570 121 575 l 121 485 l 14 485 l 14 576 q 49 662 14 626 q 135 697 85 697 q 219 662 184 697 q 254 576 254 627 l 254 0 l 157 0 l 157 66 l 147 66 q 128 18 147 38 q 81 -3 109 -3 q 34 18 54 -3 q 14 66 14 39 m 121 317 l 121 126 q 135 113 121 113 q 147 126 147 113 l 147 317 q 143 326 147 322 q 135 330 140 330 q 125 326 129 330 q 121 317 121 322 z "},"æ":{"ha":401,"x_min":14,"x_max":387,"o":"m 14 66 l 14 380 q 32 427 14 408 q 77 446 51 446 q 120 427 102 446 q 138 380 138 408 l 138 376 l 147 376 l 147 579 l 135 579 q 125 576 129 579 q 121 567 121 572 l 121 485 l 14 485 l 14 574 q 49 659 14 623 q 135 694 85 694 l 268 694 q 352 659 317 694 q 387 574 387 624 l 387 293 l 254 293 l 254 127 q 268 115 254 115 q 277 119 273 115 q 281 127 281 123 l 281 252 l 387 252 l 387 121 q 353 36 387 71 q 273 0 319 0 l 157 0 l 157 66 l 147 66 q 128 18 147 38 q 81 -3 109 -3 q 34 18 54 -3 q 14 66 14 39 m 281 567 q 277 575 281 572 q 268 579 273 579 l 254 579 l 254 400 l 281 400 l 281 567 m 121 317 l 121 126 q 135 113 121 113 q 147 126 147 113 l 147 317 q 143 326 147 322 q 135 330 140 330 q 125 326 129 330 q 121 317 121 322 z "},"ç":{"ha":268,"x_min":14,"x_max":254,"o":"m 135 697 q 219 662 184 697 q 254 576 254 627 l 254 400 l 147 400 l 147 570 q 143 578 147 575 q 135 582 140 582 q 125 578 129 582 q 121 570 121 575 l 121 125 q 125 116 121 119 q 135 113 129 113 q 143 116 140 113 q 147 125 147 119 l 147 293 l 254 293 l 254 118 q 225 39 254 73 q 153 -1 197 5 l 153 -29 q 188 -53 174 -35 q 201 -94 201 -71 q 182 -141 201 -121 q 135 -161 163 -161 q 88 -141 108 -161 q 68 -94 68 -121 l 103 -94 q 112 -117 103 -108 q 135 -126 121 -126 q 158 -117 149 -126 q 167 -94 167 -108 q 158 -72 167 -81 q 135 -62 149 -62 l 118 -62 l 118 -1 q 44 39 74 5 q 14 118 14 73 l 14 576 q 49 662 14 626 q 135 697 85 697 z "},"è":{"ha":268,"x_min":14,"x_max":254,"o":"m 138 750 l 96 890 l 132 890 l 174 750 l 138 750 m 147 252 l 254 252 l 254 118 q 219 33 254 68 q 135 -3 184 -3 q 49 33 85 -3 q 14 118 14 68 l 14 576 q 49 662 14 626 q 135 697 85 697 q 219 662 184 697 q 254 576 254 627 l 254 293 l 121 293 l 121 125 q 125 116 121 119 q 135 113 129 113 q 143 116 140 113 q 147 125 147 119 l 147 252 m 147 570 q 143 578 147 575 q 135 582 140 582 q 125 578 129 582 q 121 570 121 575 l 121 400 l 147 400 l 147 570 z "},"é":{"ha":268,"x_min":14,"x_max":254,"o":"m 132 750 l 96 750 l 138 890 l 174 890 l 132 750 m 147 252 l 254 252 l 254 118 q 219 33 254 68 q 135 -3 184 -3 q 49 33 85 -3 q 14 118 14 68 l 14 576 q 49 662 14 626 q 135 697 85 697 q 219 662 184 697 q 254 576 254 627 l 254 293 l 121 293 l 121 125 q 125 116 121 119 q 135 113 129 113 q 143 116 140 113 q 147 125 147 119 l 147 252 m 147 570 q 143 578 147 575 q 135 582 140 582 q 125 578 129 582 q 121 570 121 575 l 121 400 l 147 400 l 147 570 z "},"ê":{"ha":268,"x_min":14,"x_max":254,"o":"m 52 775 l 134 857 l 216 775 l 192 750 l 134 808 l 77 750 l 52 775 m 147 252 l 254 252 l 254 118 q 219 33 254 68 q 135 -3 184 -3 q 49 33 85 -3 q 14 118 14 68 l 14 576 q 49 662 14 626 q 135 697 85 697 q 219 662 184 697 q 254 576 254 627 l 254 293 l 121 293 l 121 125 q 125 116 121 119 q 135 113 129 113 q 143 116 140 113 q 147 125 147 119 l 147 252 m 147 570 q 143 578 147 575 q 135 582 140 582 q 125 578 129 582 q 121 570 121 575 l 121 400 l 147 400 l 147 570 z "},"ë":{"ha":268,"x_min":14,"x_max":254,"o":"m 183 878 l 254 807 l 183 736 l 135 786 l 85 736 l 14 807 l 85 878 l 135 828 l 183 878 m 155 807 l 183 779 l 212 807 l 183 835 l 155 807 m 57 807 l 85 779 l 113 807 l 85 835 l 57 807 m 147 252 l 254 252 l 254 118 q 219 33 254 68 q 135 -3 184 -3 q 49 33 85 -3 q 14 118 14 68 l 14 576 q 49 662 14 626 q 135 697 85 697 q 219 662 184 697 q 254 576 254 627 l 254 293 l 121 293 l 121 125 q 125 116 121 119 q 135 113 129 113 q 143 116 140 113 q 147 125 147 119 l 147 252 m 147 570 q 143 578 147 575 q 135 582 140 582 q 125 578 129 582 q 121 570 121 575 l 121 400 l 147 400 l 147 570 z "},"ì":{"ha":134,"x_min":14,"x_max":121,"o":"m 71 750 l 29 890 l 65 890 l 107 750 l 71 750 m 14 0 l 14 694 l 121 694 l 121 0 l 14 0 z "},"í":{"ha":134,"x_min":14,"x_max":121,"o":"m 65 750 l 29 750 l 71 890 l 107 890 l 65 750 m 14 0 l 14 694 l 121 694 l 121 0 l 14 0 z "},"î":{"ha":134,"x_min":-16,"x_max":150,"o":"m -16 775 l 66 857 l 150 775 l 125 750 l 66 808 l 9 750 l -16 775 m 14 0 l 14 694 l 121 694 l 121 0 l 14 0 z "},"ï":{"ha":134,"x_min":-53,"x_max":187,"o":"m 117 878 l 187 807 l 117 736 l 68 786 l 18 736 l -53 807 l 18 878 l 68 828 l 117 878 m 89 807 l 117 779 l 146 807 l 117 835 l 89 807 m -9 807 l 18 779 l 46 807 l 18 835 l -9 807 m 14 0 l 14 694 l 121 694 l 121 0 l 14 0 z "},"ñ":{"ha":268,"x_min":7,"x_max":261,"o":"m 32 745 l 7 770 l 24 786 q 86 811 51 811 q 143 789 121 811 q 184 771 161 771 q 220 786 205 771 l 236 803 l 261 779 l 244 761 q 182 736 219 736 q 125 758 147 736 q 85 777 106 777 q 49 761 64 777 l 32 745 m 254 627 l 254 0 l 147 0 l 147 568 q 143 578 147 574 q 135 582 140 582 q 125 578 129 582 q 121 568 121 574 l 121 0 l 14 0 l 14 694 l 111 694 l 111 627 l 121 627 q 140 676 121 656 q 187 697 160 697 q 235 676 215 697 q 254 627 254 656 z "},"ò":{"ha":268,"x_min":14,"x_max":254,"o":"m 138 750 l 96 890 l 132 890 l 174 750 l 138 750 m 135 697 q 219 662 184 697 q 254 576 254 627 l 254 118 q 219 33 254 68 q 135 -3 184 -3 q 49 33 85 -3 q 14 118 14 68 l 14 576 q 49 662 14 626 q 135 697 85 697 m 147 125 l 147 570 q 143 578 147 575 q 135 582 140 582 q 125 578 129 582 q 121 570 121 575 l 121 125 q 125 116 121 119 q 135 113 129 113 q 143 116 140 113 q 147 125 147 119 z "},"ó":{"ha":268,"x_min":14,"x_max":254,"o":"m 132 750 l 96 750 l 138 890 l 174 890 l 132 750 m 135 697 q 219 662 184 697 q 254 576 254 627 l 254 118 q 219 33 254 68 q 135 -3 184 -3 q 49 33 85 -3 q 14 118 14 68 l 14 576 q 49 662 14 626 q 135 697 85 697 m 147 125 l 147 570 q 143 578 147 575 q 135 582 140 582 q 125 578 129 582 q 121 570 121 575 l 121 125 q 125 116 121 119 q 135 113 129 113 q 143 116 140 113 q 147 125 147 119 z "},"ô":{"ha":268,"x_min":14,"x_max":254,"o":"m 52 775 l 134 857 l 216 775 l 192 750 l 134 808 l 77 750 l 52 775 m 135 697 q 219 662 184 697 q 254 576 254 627 l 254 118 q 219 33 254 68 q 135 -3 184 -3 q 49 33 85 -3 q 14 118 14 68 l 14 576 q 49 662 14 626 q 135 697 85 697 m 147 125 l 147 570 q 143 578 147 575 q 135 582 140 582 q 125 578 129 582 q 121 570 121 575 l 121 125 q 125 116 121 119 q 135 113 129 113 q 143 116 140 113 q 147 125 147 119 z "},"õ":{"ha":268,"x_min":7,"x_max":261,"o":"m 32 745 l 7 770 l 24 786 q 86 811 51 811 q 143 789 121 811 q 184 771 161 771 q 220 786 205 771 l 236 803 l 261 779 l 244 761 q 182 736 219 736 q 125 758 147 736 q 85 777 106 777 q 49 761 64 777 l 32 745 m 135 697 q 219 662 184 697 q 254 576 254 627 l 254 118 q 219 33 254 68 q 135 -3 184 -3 q 49 33 85 -3 q 14 118 14 68 l 14 576 q 49 662 14 626 q 135 697 85 697 m 147 125 l 147 570 q 143 578 147 575 q 135 582 140 582 q 125 578 129 582 q 121 570 121 575 l 121 125 q 125 116 121 119 q 135 113 129 113 q 143 116 140 113 q 147 125 147 119 z "},"ö":{"ha":268,"x_min":14,"x_max":254,"o":"m 183 878 l 254 807 l 183 736 l 135 786 l 85 736 l 14 807 l 85 878 l 135 828 l 183 878 m 155 807 l 183 779 l 212 807 l 183 835 l 155 807 m 57 807 l 85 779 l 113 807 l 85 835 l 57 807 m 135 697 q 219 662 184 697 q 254 576 254 627 l 254 118 q 219 33 254 68 q 135 -3 184 -3 q 49 33 85 -3 q 14 118 14 68 l 14 576 q 49 662 14 626 q 135 697 85 697 m 147 125 l 147 570 q 143 578 147 575 q 135 582 140 582 q 125 578 129 582 q 121 570 121 575 l 121 125 q 125 116 121 119 q 135 113 129 113 q 143 116 140 113 q 147 125 147 119 z "},"÷":{"ha":229,"x_min":14,"x_max":215,"o":"m 61 611 l 61 778 l 168 778 l 168 611 l 61 611 m 14 541 l 215 541 l 215 433 l 14 433 l 14 541 m 61 196 l 61 363 l 168 363 l 168 196 l 61 196 z "},"ø":{"ha":268,"x_min":14,"x_max":254,"o":"m 135 697 q 211 669 176 697 l 218 694 l 254 694 l 237 637 q 254 576 254 609 l 254 118 q 219 33 254 68 q 135 -3 184 -3 q 57 25 89 -3 l 50 0 l 14 0 l 31 57 q 14 118 14 85 l 14 576 q 49 662 14 626 q 135 697 85 697 m 147 454 l 147 570 q 143 578 147 575 q 135 582 140 582 q 125 578 129 582 q 121 570 121 575 l 121 364 l 147 454 m 147 330 l 121 240 l 121 125 q 125 116 121 119 q 135 113 129 113 q 143 116 140 113 q 147 125 147 119 l 147 330 z "},"ù":{"ha":268,"x_min":14,"x_max":254,"o":"m 138 750 l 96 890 l 132 890 l 174 750 l 138 750 m 147 126 l 147 694 l 254 694 l 254 0 l 157 0 l 157 66 l 147 66 q 128 18 147 38 q 81 -3 109 -3 q 34 18 54 -3 q 14 66 14 39 l 14 694 l 121 694 l 121 126 q 135 113 121 113 q 147 126 147 113 z "},"ú":{"ha":268,"x_min":14,"x_max":254,"o":"m 132 750 l 96 750 l 138 890 l 174 890 l 132 750 m 147 126 l 147 694 l 254 694 l 254 0 l 157 0 l 157 66 l 147 66 q 128 18 147 38 q 81 -3 109 -3 q 34 18 54 -3 q 14 66 14 39 l 14 694 l 121 694 l 121 126 q 135 113 121 113 q 147 126 147 113 z "},"û":{"ha":268,"x_min":14,"x_max":254,"o":"m 52 775 l 134 857 l 216 775 l 192 750 l 134 808 l 77 750 l 52 775 m 147 126 l 147 694 l 254 694 l 254 0 l 157 0 l 157 66 l 147 66 q 128 18 147 38 q 81 -3 109 -3 q 34 18 54 -3 q 14 66 14 39 l 14 694 l 121 694 l 121 126 q 135 113 121 113 q 147 126 147 113 z "},"ü":{"ha":268,"x_min":14,"x_max":254,"o":"m 183 878 l 254 807 l 183 736 l 135 786 l 85 736 l 14 807 l 85 878 l 135 828 l 183 878 m 155 807 l 183 779 l 212 807 l 183 835 l 155 807 m 57 807 l 85 779 l 113 807 l 85 835 l 57 807 m 147 126 l 147 694 l 254 694 l 254 0 l 157 0 l 157 66 l 147 66 q 128 18 147 38 q 81 -3 109 -3 q 34 18 54 -3 q 14 66 14 39 l 14 694 l 121 694 l 121 126 q 135 113 121 113 q 147 126 147 113 z "},"ý":{"ha":268,"x_min":14,"x_max":254,"o":"m 132 750 l 96 750 l 138 890 l 174 890 l 132 750 m 147 694 l 254 694 l 254 -118 q 219 -203 254 -168 q 135 -239 184 -239 q 49 -203 85 -239 q 14 -118 14 -168 l 14 -41 l 121 -41 l 121 -111 q 125 -120 121 -117 q 135 -123 129 -123 q 143 -120 140 -123 q 147 -111 147 -117 l 147 66 l 138 66 l 138 61 q 120 16 138 35 q 77 -3 102 -3 q 32 16 50 -3 q 14 61 14 34 l 14 694 l 121 694 l 121 126 q 125 117 121 121 q 135 113 129 113 q 143 117 140 113 q 147 126 147 121 l 147 694 z "},"þ":{"ha":268,"x_min":14,"x_max":254,"o":"m 254 66 q 235 17 254 37 q 187 -3 215 -3 q 140 18 160 -3 q 121 66 121 38 l 111 66 l 111 -236 l 14 -236 l 14 972 l 111 972 l 111 628 l 121 628 q 140 677 121 656 q 187 697 160 697 q 235 677 215 697 q 254 628 254 657 l 254 66 m 147 126 l 147 567 q 135 581 147 581 q 121 567 121 581 l 121 126 q 135 113 121 113 q 147 126 147 113 z "},"ÿ":{"ha":268,"x_min":14,"x_max":254,"o":"m 183 878 l 254 807 l 183 736 l 135 786 l 85 736 l 14 807 l 85 878 l 135 828 l 183 878 m 155 807 l 183 779 l 212 807 l 183 835 l 155 807 m 57 807 l 85 779 l 113 807 l 85 835 l 57 807 m 147 694 l 254 694 l 254 -118 q 219 -203 254 -168 q 135 -239 184 -239 q 49 -203 85 -239 q 14 -118 14 -168 l 14 -41 l 121 -41 l 121 -111 q 125 -120 121 -117 q 135 -123 129 -123 q 143 -120 140 -123 q 147 -111 147 -117 l 147 66 l 138 66 l 138 61 q 120 16 138 35 q 77 -3 102 -3 q 32 16 50 -3 q 14 61 14 34 l 14 694 l 121 694 l 121 126 q 125 117 121 121 q 135 113 129 113 q 143 117 140 113 q 147 126 147 121 l 147 694 z "},"Ā":{"ha":264,"x_min":7,"x_max":257,"o":"m 212 1028 l 53 1028 l 53 1063 l 212 1063 l 212 1028 m 46 972 l 220 972 l 257 107 l 257 0 l 151 0 l 146 278 l 118 278 l 113 0 l 7 0 l 7 107 l 46 972 m 127 831 l 119 385 l 144 385 l 138 831 l 127 831 z "},"ā":{"ha":268,"x_min":14,"x_max":254,"o":"m 214 750 l 54 750 l 54 785 l 214 785 l 214 750 m 14 66 l 14 380 q 32 427 14 408 q 77 446 51 446 q 120 427 102 446 q 138 380 138 408 l 138 376 l 147 376 l 147 570 q 143 578 147 575 q 135 582 140 582 q 125 578 129 582 q 121 570 121 575 l 121 485 l 14 485 l 14 576 q 49 662 14 626 q 135 697 85 697 q 219 662 184 697 q 254 576 254 627 l 254 0 l 157 0 l 157 66 l 147 66 q 128 18 147 38 q 81 -3 109 -3 q 34 18 54 -3 q 14 66 14 39 m 121 317 l 121 126 q 135 113 121 113 q 147 126 147 113 l 147 317 q 143 326 147 322 q 135 330 140 330 q 125 326 129 330 q 121 317 121 322 z "},"Ă":{"ha":264,"x_min":7,"x_max":257,"o":"m 160 1097 l 191 1114 q 199 1080 199 1099 q 179 1034 199 1053 q 132 1014 160 1014 q 85 1034 105 1014 q 65 1080 65 1053 q 74 1114 65 1098 l 104 1097 q 100 1080 100 1088 q 109 1058 100 1067 q 132 1048 119 1048 q 155 1058 146 1048 q 164 1080 164 1067 q 160 1097 164 1089 m 46 972 l 220 972 l 257 107 l 257 0 l 151 0 l 146 278 l 118 278 l 113 0 l 7 0 l 7 107 l 46 972 m 127 831 l 119 385 l 144 385 l 138 831 l 127 831 z "},"ă":{"ha":268,"x_min":14,"x_max":254,"o":"m 163 819 l 193 836 q 201 803 201 822 q 182 756 201 776 q 135 736 163 736 q 88 756 108 736 q 68 803 68 776 q 77 836 68 821 l 107 819 q 103 803 103 811 q 112 780 103 789 q 135 771 121 771 q 158 780 149 771 q 167 803 167 789 q 163 819 167 811 m 14 66 l 14 380 q 32 427 14 408 q 77 446 51 446 q 120 427 102 446 q 138 380 138 408 l 138 376 l 147 376 l 147 570 q 143 578 147 575 q 135 582 140 582 q 125 578 129 582 q 121 570 121 575 l 121 485 l 14 485 l 14 576 q 49 662 14 626 q 135 697 85 697 q 219 662 184 697 q 254 576 254 627 l 254 0 l 157 0 l 157 66 l 147 66 q 128 18 147 38 q 81 -3 109 -3 q 34 18 54 -3 q 14 66 14 39 m 121 317 l 121 126 q 135 113 121 113 q 147 126 147 113 l 147 317 q 143 326 147 322 q 135 330 140 330 q 125 326 129 330 q 121 317 121 322 z "},"Ą":{"ha":264,"x_min":7,"x_max":257,"o":"m 46 972 l 220 972 l 257 107 l 257 0 l 186 0 l 186 -29 q 221 -53 208 -35 q 235 -94 235 -71 q 215 -141 235 -121 q 168 -161 196 -161 q 121 -141 141 -161 q 102 -94 102 -121 l 136 -94 q 145 -117 136 -108 q 168 -126 155 -126 q 191 -117 182 -126 q 200 -94 200 -108 q 191 -72 200 -81 q 168 -62 182 -62 l 151 -62 l 151 0 l 146 278 l 118 278 l 113 0 l 7 0 l 7 107 l 46 972 m 127 831 l 119 385 l 144 385 l 138 831 l 127 831 z "},"ą":{"ha":268,"x_min":14,"x_max":254,"o":"m 14 66 l 14 380 q 32 427 14 408 q 77 446 51 446 q 120 427 102 446 q 138 380 138 408 l 138 376 l 147 376 l 147 570 q 143 578 147 575 q 135 582 140 582 q 125 578 129 582 q 121 570 121 575 l 121 485 l 14 485 l 14 576 q 49 662 14 626 q 135 697 85 697 q 219 662 184 697 q 254 576 254 627 l 254 0 l 192 0 l 192 -29 q 227 -53 213 -35 q 240 -94 240 -71 q 221 -141 240 -121 q 174 -161 201 -161 q 127 -141 146 -161 q 107 -94 107 -121 l 142 -94 q 151 -117 142 -108 q 174 -126 160 -126 q 196 -117 187 -126 q 205 -94 205 -108 q 196 -72 205 -81 q 174 -62 187 -62 l 157 -62 l 157 66 l 147 66 q 128 18 147 38 q 81 -3 109 -3 q 34 18 54 -3 q 14 66 14 39 m 121 317 l 121 126 q 135 113 121 113 q 147 126 147 113 l 147 317 q 143 326 147 322 q 135 330 140 330 q 125 326 129 330 q 121 317 121 322 z "},"Ć":{"ha":268,"x_min":14,"x_max":254,"o":"m 132 1028 l 96 1028 l 138 1168 l 174 1168 l 132 1028 m 135 975 q 219 940 184 975 q 254 854 254 905 l 254 539 l 147 539 l 147 847 q 143 856 147 852 q 135 860 140 860 q 125 856 129 860 q 121 847 121 852 l 121 125 q 125 116 121 119 q 135 113 129 113 q 143 116 140 113 q 147 125 147 119 l 147 432 l 254 432 l 254 118 q 219 33 254 68 q 135 -3 184 -3 q 49 33 85 -3 q 14 118 14 68 l 14 854 q 49 940 14 904 q 135 975 85 975 z "},"ć":{"ha":268,"x_min":14,"x_max":254,"o":"m 132 750 l 96 750 l 138 890 l 174 890 l 132 750 m 135 697 q 219 662 184 697 q 254 576 254 627 l 254 400 l 147 400 l 147 570 q 143 578 147 575 q 135 582 140 582 q 125 578 129 582 q 121 570 121 575 l 121 125 q 125 116 121 119 q 135 113 129 113 q 143 116 140 113 q 147 125 147 119 l 147 293 l 254 293 l 254 118 q 219 33 254 68 q 135 -3 184 -3 q 49 33 85 -3 q 14 118 14 68 l 14 576 q 49 662 14 626 q 135 697 85 697 z "},"Ĉ":{"ha":268,"x_min":14,"x_max":254,"o":"m 52 1053 l 134 1135 l 216 1053 l 192 1028 l 134 1086 l 77 1028 l 52 1053 m 135 975 q 219 940 184 975 q 254 854 254 905 l 254 539 l 147 539 l 147 847 q 143 856 147 852 q 135 860 140 860 q 125 856 129 860 q 121 847 121 852 l 121 125 q 125 116 121 119 q 135 113 129 113 q 143 116 140 113 q 147 125 147 119 l 147 432 l 254 432 l 254 118 q 219 33 254 68 q 135 -3 184 -3 q 49 33 85 -3 q 14 118 14 68 l 14 854 q 49 940 14 904 q 135 975 85 975 z "},"ĉ":{"ha":268,"x_min":14,"x_max":254,"o":"m 52 775 l 134 857 l 216 775 l 192 750 l 134 808 l 77 750 l 52 775 m 135 697 q 219 662 184 697 q 254 576 254 627 l 254 400 l 147 400 l 147 570 q 143 578 147 575 q 135 582 140 582 q 125 578 129 582 q 121 570 121 575 l 121 125 q 125 116 121 119 q 135 113 129 113 q 143 116 140 113 q 147 125 147 119 l 147 293 l 254 293 l 254 118 q 219 33 254 68 q 135 -3 184 -3 q 49 33 85 -3 q 14 118 14 68 l 14 576 q 49 662 14 626 q 135 697 85 697 z "},"Ċ":{"ha":268,"x_min":14,"x_max":254,"o":"m 135 1156 l 205 1084 l 135 1014 l 64 1084 l 135 1156 m 107 1084 l 135 1057 l 163 1084 l 135 1112 l 107 1084 m 135 975 q 219 940 184 975 q 254 854 254 905 l 254 539 l 147 539 l 147 847 q 143 856 147 852 q 135 860 140 860 q 125 856 129 860 q 121 847 121 852 l 121 125 q 125 116 121 119 q 135 113 129 113 q 143 116 140 113 q 147 125 147 119 l 147 432 l 254 432 l 254 118 q 219 33 254 68 q 135 -3 184 -3 q 49 33 85 -3 q 14 118 14 68 l 14 854 q 49 940 14 904 q 135 975 85 975 z "},"ċ":{"ha":268,"x_min":14,"x_max":254,"o":"m 135 878 l 205 807 l 135 736 l 64 807 l 135 878 m 107 807 l 135 779 l 163 807 l 135 835 l 107 807 m 135 697 q 219 662 184 697 q 254 576 254 627 l 254 400 l 147 400 l 147 570 q 143 578 147 575 q 135 582 140 582 q 125 578 129 582 q 121 570 121 575 l 121 125 q 125 116 121 119 q 135 113 129 113 q 143 116 140 113 q 147 125 147 119 l 147 293 l 254 293 l 254 118 q 219 33 254 68 q 135 -3 184 -3 q 49 33 85 -3 q 14 118 14 68 l 14 576 q 49 662 14 626 q 135 697 85 697 z "},"Č":{"ha":268,"x_min":14,"x_max":254,"o":"m 216 1096 l 134 1014 l 52 1096 l 77 1121 l 134 1063 l 192 1121 l 216 1096 m 135 975 q 219 940 184 975 q 254 854 254 905 l 254 539 l 147 539 l 147 847 q 143 856 147 852 q 135 860 140 860 q 125 856 129 860 q 121 847 121 852 l 121 125 q 125 116 121 119 q 135 113 129 113 q 143 116 140 113 q 147 125 147 119 l 147 432 l 254 432 l 254 118 q 219 33 254 68 q 135 -3 184 -3 q 49 33 85 -3 q 14 118 14 68 l 14 854 q 49 940 14 904 q 135 975 85 975 z "},"č":{"ha":268,"x_min":14,"x_max":254,"o":"m 216 818 l 134 736 l 52 818 l 77 843 l 134 785 l 192 843 l 216 818 m 135 697 q 219 662 184 697 q 254 576 254 627 l 254 400 l 147 400 l 147 570 q 143 578 147 575 q 135 582 140 582 q 125 578 129 582 q 121 570 121 575 l 121 125 q 125 116 121 119 q 135 113 129 113 q 143 116 140 113 q 147 125 147 119 l 147 293 l 254 293 l 254 118 q 219 33 254 68 q 135 -3 184 -3 q 49 33 85 -3 q 14 118 14 68 l 14 576 q 49 662 14 626 q 135 697 85 697 z "},"Ď":{"ha":268,"x_min":14,"x_max":254,"o":"m 216 1096 l 134 1014 l 52 1096 l 77 1121 l 134 1063 l 192 1121 l 216 1096 m 14 0 l 14 972 l 135 972 q 219 937 184 972 q 254 851 254 901 l 254 121 q 219 35 254 71 q 135 0 184 0 l 14 0 m 147 127 l 147 844 q 143 853 147 850 q 135 857 140 857 l 121 857 l 121 115 l 135 115 q 143 119 140 115 q 147 127 147 122 z "},"ď":{"ha":411,"x_min":14,"x_max":393,"o":"m 81 -3 q 33 18 53 -3 q 14 66 14 38 l 14 628 q 33 677 14 657 q 81 697 53 697 q 127 677 108 697 q 147 628 147 656 l 157 628 l 157 972 l 254 972 l 254 0 l 157 0 l 157 66 l 147 66 q 127 18 147 39 q 81 -3 108 -3 m 286 806 l 286 972 l 393 972 l 393 806 l 375 729 l 310 729 l 328 806 l 286 806 m 134 113 q 147 126 147 113 l 147 568 q 134 582 147 582 q 124 578 128 582 q 121 568 121 574 l 121 126 q 124 116 121 120 q 134 113 128 113 z "},"Đ":{"ha":287,"x_min":7,"x_max":273,"o":"m 33 538 l 33 972 l 154 972 q 238 937 203 972 q 273 851 273 901 l 273 121 q 238 35 273 71 q 154 0 203 0 l 33 0 l 33 431 l 7 431 l 7 538 l 33 538 m 167 127 l 167 844 q 163 853 167 849 q 154 857 159 857 l 140 857 l 140 538 l 154 538 l 154 431 l 140 431 l 140 115 l 154 115 q 163 119 159 115 q 167 127 167 123 z "},"đ":{"ha":281,"x_min":14,"x_max":282,"o":"m 81 -3 q 33 18 53 -3 q 14 66 14 38 l 14 628 q 33 677 14 657 q 81 697 53 697 q 127 677 108 697 q 147 628 147 656 l 157 628 l 157 750 l 122 750 l 122 785 l 157 785 l 157 972 l 254 972 l 254 785 l 282 785 l 282 750 l 254 750 l 254 0 l 157 0 l 157 66 l 147 66 q 127 18 147 39 q 81 -3 108 -3 m 134 113 q 147 126 147 113 l 147 568 q 134 582 147 582 q 124 578 128 582 q 121 568 121 574 l 121 126 q 124 116 121 120 q 134 113 128 113 z "},"Ē":{"ha":195,"x_min":14,"x_max":189,"o":"m 178 1028 l 18 1028 l 18 1063 l 178 1063 l 178 1028 m 14 972 l 189 972 l 189 857 l 121 857 l 121 541 l 187 541 l 187 432 l 121 432 l 121 115 l 189 115 l 189 0 l 14 0 l 14 972 z "},"ē":{"ha":268,"x_min":14,"x_max":254,"o":"m 214 750 l 54 750 l 54 785 l 214 785 l 214 750 m 147 252 l 254 252 l 254 118 q 219 33 254 68 q 135 -3 184 -3 q 49 33 85 -3 q 14 118 14 68 l 14 576 q 49 662 14 626 q 135 697 85 697 q 219 662 184 697 q 254 576 254 627 l 254 293 l 121 293 l 121 125 q 125 116 121 119 q 135 113 129 113 q 143 116 140 113 q 147 125 147 119 l 147 252 m 147 570 q 143 578 147 575 q 135 582 140 582 q 125 578 129 582 q 121 570 121 575 l 121 400 l 147 400 l 147 570 z "},"Ĕ":{"ha":195,"x_min":14,"x_max":189,"o":"m 126 1097 l 157 1114 q 165 1080 165 1098 q 146 1034 165 1053 q 98 1014 126 1014 q 52 1034 71 1014 q 32 1080 32 1053 q 40 1114 32 1099 l 71 1097 q 66 1080 66 1089 q 76 1058 66 1067 q 98 1048 85 1048 q 121 1058 112 1048 q 131 1080 131 1067 q 126 1097 131 1088 m 14 972 l 189 972 l 189 857 l 121 857 l 121 541 l 187 541 l 187 432 l 121 432 l 121 115 l 189 115 l 189 0 l 14 0 l 14 972 z "},"ĕ":{"ha":268,"x_min":14,"x_max":254,"o":"m 163 819 l 193 836 q 201 803 201 822 q 182 756 201 776 q 135 736 163 736 q 88 756 108 736 q 68 803 68 776 q 77 836 68 821 l 107 819 q 103 803 103 811 q 112 780 103 789 q 135 771 121 771 q 158 780 149 771 q 167 803 167 789 q 163 819 167 811 m 147 252 l 254 252 l 254 118 q 219 33 254 68 q 135 -3 184 -3 q 49 33 85 -3 q 14 118 14 68 l 14 576 q 49 662 14 626 q 135 697 85 697 q 219 662 184 697 q 254 576 254 627 l 254 293 l 121 293 l 121 125 q 125 116 121 119 q 135 113 129 113 q 143 116 140 113 q 147 125 147 119 l 147 252 m 147 570 q 143 578 147 575 q 135 582 140 582 q 125 578 129 582 q 121 570 121 575 l 121 400 l 147 400 l 147 570 z "},"Ė":{"ha":195,"x_min":14,"x_max":189,"o":"m 98 1156 l 170 1084 l 98 1014 l 28 1084 l 98 1156 m 71 1084 l 98 1057 l 126 1084 l 98 1112 l 71 1084 m 14 972 l 189 972 l 189 857 l 121 857 l 121 541 l 187 541 l 187 432 l 121 432 l 121 115 l 189 115 l 189 0 l 14 0 l 14 972 z "},"ė":{"ha":268,"x_min":14,"x_max":254,"o":"m 135 878 l 205 807 l 135 736 l 64 807 l 135 878 m 107 807 l 135 779 l 163 807 l 135 835 l 107 807 m 147 252 l 254 252 l 254 118 q 219 33 254 68 q 135 -3 184 -3 q 49 33 85 -3 q 14 118 14 68 l 14 576 q 49 662 14 626 q 135 697 85 697 q 219 662 184 697 q 254 576 254 627 l 254 293 l 121 293 l 121 125 q 125 116 121 119 q 135 113 129 113 q 143 116 140 113 q 147 125 147 119 l 147 252 m 147 570 q 143 578 147 575 q 135 582 140 582 q 125 578 129 582 q 121 570 121 575 l 121 400 l 147 400 l 147 570 z "},"Ę":{"ha":195,"x_min":14,"x_max":189,"o":"m 14 972 l 189 972 l 189 857 l 121 857 l 121 541 l 187 541 l 187 432 l 121 432 l 121 115 l 189 115 l 189 0 l 119 0 l 119 -29 q 155 -53 141 -35 q 168 -94 168 -71 q 149 -141 168 -121 q 102 -161 130 -161 q 55 -141 75 -161 q 35 -94 35 -121 l 69 -94 q 79 -117 69 -108 q 102 -126 88 -126 q 124 -117 115 -126 q 134 -94 134 -108 q 124 -72 134 -81 q 102 -62 115 -62 l 85 -62 l 85 0 l 14 0 l 14 972 z "},"ę":{"ha":268,"x_min":14,"x_max":254,"o":"m 147 252 l 254 252 l 254 118 q 225 39 254 73 q 151 -1 195 5 l 151 -29 q 186 -53 173 -35 q 200 -94 200 -71 q 181 -141 200 -121 q 134 -161 161 -161 q 86 -141 106 -161 q 66 -94 66 -121 l 102 -94 q 111 -117 102 -108 q 134 -126 120 -126 q 156 -117 147 -126 q 165 -94 165 -108 q 156 -72 165 -81 q 134 -62 147 -62 l 117 -62 l 117 -1 q 43 39 73 5 q 14 118 14 73 l 14 576 q 49 662 14 626 q 135 697 85 697 q 219 662 184 697 q 254 576 254 627 l 254 293 l 121 293 l 121 125 q 125 116 121 119 q 135 113 129 113 q 143 116 140 113 q 147 125 147 119 l 147 252 m 147 570 q 143 578 147 575 q 135 582 140 582 q 125 578 129 582 q 121 570 121 575 l 121 400 l 147 400 l 147 570 z "},"Ě":{"ha":195,"x_min":14,"x_max":189,"o":"m 180 1096 l 97 1014 l 16 1096 l 40 1121 l 97 1063 l 155 1121 l 180 1096 m 14 972 l 189 972 l 189 857 l 121 857 l 121 541 l 187 541 l 187 432 l 121 432 l 121 115 l 189 115 l 189 0 l 14 0 l 14 972 z "},"ě":{"ha":268,"x_min":14,"x_max":254,"o":"m 216 818 l 134 736 l 52 818 l 77 843 l 134 785 l 192 843 l 216 818 m 147 252 l 254 252 l 254 118 q 219 33 254 68 q 135 -3 184 -3 q 49 33 85 -3 q 14 118 14 68 l 14 576 q 49 662 14 626 q 135 697 85 697 q 219 662 184 697 q 254 576 254 627 l 254 293 l 121 293 l 121 125 q 125 116 121 119 q 135 113 129 113 q 143 116 140 113 q 147 125 147 119 l 147 252 m 147 570 q 143 578 147 575 q 135 582 140 582 q 125 578 129 582 q 121 570 121 575 l 121 400 l 147 400 l 147 570 z "},"Ĝ":{"ha":268,"x_min":14,"x_max":254,"o":"m 52 1053 l 134 1135 l 216 1053 l 192 1028 l 134 1086 l 77 1028 l 52 1053 m 135 975 q 219 940 184 975 q 254 854 254 905 l 254 646 l 147 646 l 147 847 q 143 856 147 852 q 135 860 140 860 q 125 856 129 860 q 121 847 121 852 l 121 125 q 125 116 121 119 q 135 113 129 113 q 143 116 140 113 q 147 125 147 119 l 147 432 l 136 432 l 136 539 l 254 539 l 254 118 q 219 33 254 68 q 135 -3 184 -3 q 49 33 85 -3 q 14 118 14 68 l 14 854 q 49 940 14 904 q 135 975 85 975 z "},"ĝ":{"ha":268,"x_min":14,"x_max":254,"o":"m 52 775 l 134 857 l 216 775 l 192 750 l 134 808 l 77 750 l 52 775 m 14 61 l 14 627 q 34 676 14 656 q 81 697 54 697 q 128 676 109 697 q 147 627 147 656 l 157 627 l 157 694 l 254 694 l 254 -118 q 219 -203 254 -168 q 135 -239 184 -239 q 49 -203 85 -239 q 14 -118 14 -168 l 14 -41 l 121 -41 l 121 -111 q 125 -120 121 -117 q 135 -123 129 -123 q 143 -120 140 -123 q 147 -111 147 -117 l 147 66 l 138 66 l 138 61 q 120 16 138 35 q 77 -3 102 -3 q 32 16 50 -3 q 14 61 14 34 m 121 568 l 121 126 q 125 117 121 121 q 135 113 129 113 q 143 117 140 113 q 147 126 147 121 l 147 568 q 143 578 147 574 q 135 582 140 582 q 125 578 129 582 q 121 568 121 574 z "},"Ğ":{"ha":268,"x_min":14,"x_max":254,"o":"m 163 1097 l 193 1114 q 201 1080 201 1099 q 182 1034 201 1053 q 135 1014 163 1014 q 88 1034 108 1014 q 68 1080 68 1053 q 77 1114 68 1098 l 107 1097 q 103 1080 103 1089 q 112 1058 103 1067 q 135 1048 121 1048 q 158 1058 149 1048 q 167 1080 167 1067 q 163 1097 167 1089 m 135 975 q 219 940 184 975 q 254 854 254 905 l 254 646 l 147 646 l 147 847 q 143 856 147 852 q 135 860 140 860 q 125 856 129 860 q 121 847 121 852 l 121 125 q 125 116 121 119 q 135 113 129 113 q 143 116 140 113 q 147 125 147 119 l 147 432 l 136 432 l 136 539 l 254 539 l 254 118 q 219 33 254 68 q 135 -3 184 -3 q 49 33 85 -3 q 14 118 14 68 l 14 854 q 49 940 14 904 q 135 975 85 975 z "},"ğ":{"ha":268,"x_min":14,"x_max":254,"o":"m 163 819 l 193 836 q 201 803 201 822 q 182 756 201 776 q 135 736 163 736 q 88 756 108 736 q 68 803 68 776 q 77 836 68 821 l 107 819 q 103 803 103 811 q 112 780 103 789 q 135 771 121 771 q 158 780 149 771 q 167 803 167 789 q 163 819 167 811 m 14 61 l 14 627 q 34 676 14 656 q 81 697 54 697 q 128 676 109 697 q 147 627 147 656 l 157 627 l 157 694 l 254 694 l 254 -118 q 219 -203 254 -168 q 135 -239 184 -239 q 49 -203 85 -239 q 14 -118 14 -168 l 14 -41 l 121 -41 l 121 -111 q 125 -120 121 -117 q 135 -123 129 -123 q 143 -120 140 -123 q 147 -111 147 -117 l 147 66 l 138 66 l 138 61 q 120 16 138 35 q 77 -3 102 -3 q 32 16 50 -3 q 14 61 14 34 m 121 568 l 121 126 q 125 117 121 121 q 135 113 129 113 q 143 117 140 113 q 147 126 147 121 l 147 568 q 143 578 147 574 q 135 582 140 582 q 125 578 129 582 q 121 568 121 574 z "},"Ġ":{"ha":268,"x_min":14,"x_max":254,"o":"m 135 1156 l 205 1084 l 135 1014 l 64 1084 l 135 1156 m 107 1084 l 135 1057 l 163 1084 l 135 1112 l 107 1084 m 135 975 q 219 940 184 975 q 254 854 254 905 l 254 646 l 147 646 l 147 847 q 143 856 147 852 q 135 860 140 860 q 125 856 129 860 q 121 847 121 852 l 121 125 q 125 116 121 119 q 135 113 129 113 q 143 116 140 113 q 147 125 147 119 l 147 432 l 136 432 l 136 539 l 254 539 l 254 118 q 219 33 254 68 q 135 -3 184 -3 q 49 33 85 -3 q 14 118 14 68 l 14 854 q 49 940 14 904 q 135 975 85 975 z "},"ġ":{"ha":268,"x_min":14,"x_max":254,"o":"m 135 878 l 205 807 l 135 736 l 64 807 l 135 878 m 107 807 l 135 779 l 163 807 l 135 835 l 107 807 m 14 61 l 14 627 q 34 676 14 656 q 81 697 54 697 q 128 676 109 697 q 147 627 147 656 l 157 627 l 157 694 l 254 694 l 254 -118 q 219 -203 254 -168 q 135 -239 184 -239 q 49 -203 85 -239 q 14 -118 14 -168 l 14 -41 l 121 -41 l 121 -111 q 125 -120 121 -117 q 135 -123 129 -123 q 143 -120 140 -123 q 147 -111 147 -117 l 147 66 l 138 66 l 138 61 q 120 16 138 35 q 77 -3 102 -3 q 32 16 50 -3 q 14 61 14 34 m 121 568 l 121 126 q 125 117 121 121 q 135 113 129 113 q 143 117 140 113 q 147 126 147 121 l 147 568 q 143 578 147 574 q 135 582 140 582 q 125 578 129 582 q 121 568 121 574 z "},"Ģ":{"ha":268,"x_min":14,"x_max":254,"o":"m 135 975 q 219 940 184 975 q 254 854 254 905 l 254 646 l 147 646 l 147 847 q 143 856 147 852 q 135 860 140 860 q 125 856 129 860 q 121 847 121 852 l 121 125 q 125 116 121 119 q 135 113 129 113 q 143 116 140 113 q 147 125 147 119 l 147 432 l 136 432 l 136 539 l 254 539 l 254 118 q 219 33 254 68 q 135 -3 184 -3 q 49 33 85 -3 q 14 118 14 68 l 14 854 q 49 940 14 904 q 135 975 85 975 m 132 -196 l 96 -196 l 138 -56 l 174 -56 l 132 -196 z "},"ģ":{"ha":268,"x_min":14,"x_max":254,"o":"m 132 750 l 96 750 l 138 890 l 174 890 l 132 750 m 14 61 l 14 627 q 34 676 14 656 q 81 697 54 697 q 128 676 109 697 q 147 627 147 656 l 157 627 l 157 694 l 254 694 l 254 -118 q 219 -203 254 -168 q 135 -239 184 -239 q 49 -203 85 -239 q 14 -118 14 -168 l 14 -41 l 121 -41 l 121 -111 q 125 -120 121 -117 q 135 -123 129 -123 q 143 -120 140 -123 q 147 -111 147 -117 l 147 66 l 138 66 l 138 61 q 120 16 138 35 q 77 -3 102 -3 q 32 16 50 -3 q 14 61 14 34 m 121 568 l 121 126 q 125 117 121 121 q 135 113 129 113 q 143 117 140 113 q 147 126 147 121 l 147 568 q 143 578 147 574 q 135 582 140 582 q 125 578 129 582 q 121 568 121 574 z "},"Ĥ":{"ha":268,"x_min":14,"x_max":254,"o":"m 52 1053 l 134 1135 l 216 1053 l 192 1028 l 134 1086 l 77 1028 l 52 1053 m 147 972 l 254 972 l 254 0 l 147 0 l 147 432 l 121 432 l 121 0 l 14 0 l 14 972 l 121 972 l 121 541 l 147 541 l 147 972 z "},"ĥ":{"ha":268,"x_min":14,"x_max":254,"o":"m 47 1053 l 129 1135 l 212 1053 l 187 1028 l 129 1086 l 72 1028 l 47 1053 m 254 627 l 254 0 l 147 0 l 147 568 q 143 578 147 574 q 135 582 140 582 q 125 578 129 582 q 121 568 121 574 l 121 0 l 14 0 l 14 972 l 111 972 l 111 627 l 121 627 q 140 676 121 656 q 187 697 160 697 q 235 676 215 697 q 254 627 254 656 z "},"Ħ":{"ha":268,"x_min":14,"x_max":254,"o":"m 214 1028 l 54 1028 l 54 1063 l 214 1063 l 214 1028 m 147 972 l 254 972 l 254 0 l 147 0 l 147 432 l 121 432 l 121 0 l 14 0 l 14 972 l 121 972 l 121 541 l 147 541 l 147 972 z "},"ħ":{"ha":268,"x_min":14,"x_max":254,"o":"m 214 1028 l 54 1028 l 54 1063 l 214 1063 l 214 1028 m 254 627 l 254 0 l 147 0 l 147 568 q 143 578 147 574 q 135 582 140 582 q 125 578 129 582 q 121 568 121 574 l 121 0 l 14 0 l 14 972 l 111 972 l 111 627 l 121 627 q 140 676 121 656 q 187 697 160 697 q 235 676 215 697 q 254 627 254 656 z "},"Ĩ":{"ha":134,"x_min":-60,"x_max":195,"o":"m -35 1022 l -60 1047 l -43 1064 q 20 1089 -16 1089 q 77 1067 54 1089 q 118 1048 95 1048 q 153 1064 137 1048 l 170 1080 l 195 1057 l 178 1039 q 115 1014 153 1014 q 58 1036 81 1014 q 18 1054 41 1054 q -18 1039 -3 1054 l -35 1022 m 14 0 l 14 972 l 121 972 l 121 0 l 14 0 z "},"ĩ":{"ha":134,"x_min":-60,"x_max":195,"o":"m -35 745 l -60 770 l -43 786 q 20 811 -16 811 q 77 789 54 811 q 118 771 94 771 q 153 786 138 771 l 170 803 l 195 779 l 178 761 q 115 736 153 736 q 58 758 81 736 q 18 777 40 777 q -18 761 -3 777 l -35 745 m 14 0 l 14 694 l 121 694 l 121 0 l 14 0 z "},"Ī":{"ha":134,"x_min":-12,"x_max":147,"o":"m 147 1028 l -12 1028 l -12 1063 l 147 1063 l 147 1028 m 14 0 l 14 972 l 121 972 l 121 0 l 14 0 z "},"ī":{"ha":134,"x_min":-12,"x_max":147,"o":"m 147 750 l -12 750 l -12 785 l 147 785 l 147 750 m 14 0 l 14 694 l 121 694 l 121 0 l 14 0 z "},"Į":{"ha":134,"x_min":0,"x_max":134,"o":"m 14 0 l 14 972 l 121 972 l 121 0 l 85 0 l 85 -29 q 120 -53 106 -35 q 134 -94 134 -71 q 114 -141 134 -121 q 66 -161 94 -161 q 20 -141 39 -161 q 0 -94 0 -121 l 35 -94 q 44 -117 35 -108 q 66 -126 53 -126 q 89 -117 80 -126 q 98 -94 98 -108 q 89 -72 98 -81 q 66 -62 80 -62 l 50 -62 l 50 0 l 14 0 z "},"į":{"ha":134,"x_min":0,"x_max":134,"o":"m 14 722 l 14 889 l 121 889 l 121 722 l 14 722 m 14 0 l 14 694 l 121 694 l 121 0 l 85 0 l 85 -29 q 120 -53 106 -35 q 134 -94 134 -71 q 114 -141 134 -121 q 66 -161 94 -161 q 20 -141 39 -161 q 0 -94 0 -121 l 35 -94 q 44 -117 35 -108 q 66 -126 53 -126 q 89 -117 80 -126 q 98 -94 98 -108 q 89 -72 98 -81 q 66 -62 80 -62 l 50 -62 l 50 0 l 14 0 z "},"İ":{"ha":134,"x_min":-4,"x_max":138,"o":"m 66 1156 l 138 1084 l 66 1014 l -4 1084 l 66 1156 m 39 1084 l 66 1057 l 94 1084 l 66 1112 l 39 1084 m 14 0 l 14 972 l 121 972 l 121 0 l 14 0 z "},"ı":{"ha":134,"x_min":14,"x_max":121,"o":"m 14 0 l 14 694 l 121 694 l 121 0 l 14 0 z "},"Ĵ":{"ha":268,"x_min":14,"x_max":254,"o":"m 79 1053 l 161 1135 l 244 1053 l 220 1028 l 161 1086 l 104 1028 l 79 1053 m 147 125 l 147 972 l 254 972 l 254 118 q 219 33 254 68 q 135 -3 184 -3 q 49 33 85 -3 q 14 118 14 68 l 14 432 l 121 432 l 121 125 q 125 116 121 119 q 135 113 129 113 q 143 116 140 113 q 147 125 147 119 z "},"ĵ":{"ha":134,"x_min":-26,"x_max":150,"o":"m -16 775 l 66 857 l 150 775 l 125 750 l 66 808 l 9 750 l -16 775 m -26 -129 l 14 -129 l 14 694 l 121 694 l 121 -161 q 99 -214 121 -193 q 46 -236 77 -236 l -26 -236 l -26 -129 z "},"Ķ":{"ha":302,"x_min":14,"x_max":296,"o":"m 186 972 l 296 972 l 228 486 l 296 0 l 186 0 l 131 429 l 121 429 l 121 0 l 14 0 l 14 972 l 121 972 l 121 543 l 131 543 l 186 972 m 149 -196 l 113 -196 l 154 -56 l 191 -56 l 149 -196 z "},"ķ":{"ha":281,"x_min":14,"x_max":275,"o":"m 14 972 l 121 972 l 121 401 l 131 401 l 167 694 l 275 694 l 232 347 l 275 0 l 167 0 l 131 293 l 121 293 l 121 0 l 14 0 l 14 972 m 139 -196 l 103 -196 l 144 -56 l 180 -56 l 139 -196 z "},"ĸ":{"ha":281,"x_min":14,"x_max":275,"o":"m 14 694 l 121 694 l 121 401 l 131 401 l 167 694 l 275 694 l 232 347 l 275 0 l 167 0 l 131 293 l 121 293 l 121 0 l 14 0 l 14 694 z "},"Ĺ":{"ha":222,"x_min":14,"x_max":215,"o":"m 94 1028 l 58 1028 l 100 1168 l 136 1168 l 94 1028 m 14 972 l 121 972 l 121 115 l 215 115 l 215 0 l 14 0 l 14 972 z "},"ĺ":{"ha":134,"x_min":14,"x_max":122,"o":"m 81 1028 l 45 1028 l 86 1168 l 122 1168 l 81 1028 m 14 0 l 14 972 l 121 972 l 121 0 l 14 0 z "},"Ļ":{"ha":222,"x_min":14,"x_max":215,"o":"m 14 972 l 121 972 l 121 115 l 215 115 l 215 0 l 14 0 l 14 972 m 109 -196 l 72 -196 l 114 -56 l 150 -56 l 109 -196 z "},"ļ":{"ha":134,"x_min":14,"x_max":121,"o":"m 14 0 l 14 972 l 121 972 l 121 0 l 14 0 m 65 -196 l 29 -196 l 71 -56 l 107 -56 l 65 -196 z "},"Ľ":{"ha":273,"x_min":14,"x_max":256,"o":"m 14 972 l 121 972 l 121 115 l 215 115 l 215 0 l 14 0 l 14 972 m 149 806 l 149 972 l 256 972 l 256 806 l 237 729 l 172 729 l 191 806 l 149 806 z "},"ľ":{"ha":277,"x_min":14,"x_max":253,"o":"m 14 0 l 14 972 l 121 972 l 121 0 l 14 0 m 146 806 l 146 972 l 253 972 l 253 806 l 235 729 l 170 729 l 187 806 l 146 806 z "},"Ŀ":{"ha":269,"x_min":14,"x_max":256,"o":"m 14 972 l 121 972 l 121 115 l 215 115 l 215 0 l 14 0 l 14 972 m 149 326 l 149 493 l 256 493 l 256 326 l 149 326 z "},"ŀ":{"ha":277,"x_min":14,"x_max":254,"o":"m 14 0 l 14 972 l 121 972 l 121 0 l 14 0 m 147 326 l 147 493 l 254 493 l 254 326 l 147 326 z "},"Ł":{"ha":256,"x_min":7,"x_max":250,"o":"m 49 972 l 155 972 l 155 545 l 197 566 l 197 458 l 155 437 l 155 115 l 250 115 l 250 0 l 49 0 l 49 382 l 7 361 l 7 468 l 49 489 l 49 972 z "},"ł":{"ha":204,"x_min":7,"x_max":197,"o":"m 49 0 l 49 382 l 7 361 l 7 468 l 49 489 l 49 972 l 155 972 l 155 545 l 197 566 l 197 458 l 155 437 l 155 0 l 49 0 z "},"Ń":{"ha":294,"x_min":14,"x_max":281,"o":"m 144 1028 l 109 1028 l 150 1168 l 186 1168 l 144 1028 m 172 972 l 281 972 l 281 0 l 172 0 l 132 559 l 122 559 l 122 0 l 14 0 l 14 972 l 122 972 l 163 412 l 172 412 l 172 972 z "},"ń":{"ha":268,"x_min":14,"x_max":254,"o":"m 132 750 l 96 750 l 138 890 l 174 890 l 132 750 m 254 627 l 254 0 l 147 0 l 147 568 q 143 578 147 574 q 135 582 140 582 q 125 578 129 582 q 121 568 121 574 l 121 0 l 14 0 l 14 694 l 111 694 l 111 627 l 121 627 q 140 676 121 656 q 187 697 160 697 q 235 676 215 697 q 254 627 254 656 z "},"Ņ":{"ha":294,"x_min":14,"x_max":281,"o":"m 172 972 l 281 972 l 281 0 l 172 0 l 132 559 l 122 559 l 122 0 l 14 0 l 14 972 l 122 972 l 163 412 l 172 412 l 172 972 m 144 -196 l 109 -196 l 150 -56 l 186 -56 l 144 -196 z "},"ņ":{"ha":268,"x_min":14,"x_max":254,"o":"m 254 627 l 254 0 l 147 0 l 147 568 q 143 578 147 574 q 135 582 140 582 q 125 578 129 582 q 121 568 121 574 l 121 0 l 14 0 l 14 694 l 111 694 l 111 627 l 121 627 q 140 676 121 656 q 187 697 160 697 q 235 676 215 697 q 254 627 254 656 m 132 -196 l 96 -196 l 138 -56 l 174 -56 l 132 -196 z "},"Ň":{"ha":294,"x_min":14,"x_max":281,"o":"m 231 1096 l 147 1014 l 65 1096 l 90 1121 l 147 1063 l 205 1121 l 231 1096 m 172 972 l 281 972 l 281 0 l 172 0 l 132 559 l 122 559 l 122 0 l 14 0 l 14 972 l 122 972 l 163 412 l 172 412 l 172 972 z "},"ň":{"ha":268,"x_min":14,"x_max":254,"o":"m 216 818 l 134 736 l 52 818 l 77 843 l 134 785 l 192 843 l 216 818 m 254 627 l 254 0 l 147 0 l 147 568 q 143 578 147 574 q 135 582 140 582 q 125 578 129 582 q 121 568 121 574 l 121 0 l 14 0 l 14 694 l 111 694 l 111 627 l 121 627 q 140 676 121 656 q 187 697 160 697 q 235 676 215 697 q 254 627 254 656 z "},"ŉ":{"ha":402,"x_min":14,"x_max":389,"o":"m 14 806 l 14 972 l 121 972 l 121 806 l 103 729 l 37 729 l 56 806 l 14 806 m 389 627 l 389 0 l 282 0 l 282 568 q 278 578 282 574 q 269 582 274 582 q 259 578 263 582 q 256 568 256 574 l 256 0 l 149 0 l 149 694 l 245 694 l 245 627 l 256 627 q 275 676 256 656 q 322 697 295 697 q 369 676 350 697 q 389 627 389 656 z "},"Ō":{"ha":268,"x_min":14,"x_max":254,"o":"m 214 1028 l 54 1028 l 54 1063 l 214 1063 l 214 1028 m 135 975 q 219 940 184 975 q 254 854 254 905 l 254 118 q 219 33 254 68 q 135 -3 184 -3 q 49 33 85 -3 q 14 118 14 68 l 14 854 q 49 940 14 904 q 135 975 85 975 m 147 125 l 147 847 q 143 856 147 852 q 135 860 140 860 q 125 856 129 860 q 121 847 121 852 l 121 125 q 125 116 121 119 q 135 113 129 113 q 143 116 140 113 q 147 125 147 119 z "},"ō":{"ha":268,"x_min":14,"x_max":254,"o":"m 214 750 l 54 750 l 54 785 l 214 785 l 214 750 m 135 697 q 219 662 184 697 q 254 576 254 627 l 254 118 q 219 33 254 68 q 135 -3 184 -3 q 49 33 85 -3 q 14 118 14 68 l 14 576 q 49 662 14 626 q 135 697 85 697 m 147 125 l 147 570 q 143 578 147 575 q 135 582 140 582 q 125 578 129 582 q 121 570 121 575 l 121 125 q 125 116 121 119 q 135 113 129 113 q 143 116 140 113 q 147 125 147 119 z "},"Ŏ":{"ha":268,"x_min":14,"x_max":254,"o":"m 163 1097 l 193 1114 q 201 1080 201 1099 q 182 1034 201 1053 q 135 1014 163 1014 q 88 1034 108 1014 q 68 1080 68 1053 q 77 1114 68 1098 l 107 1097 q 103 1080 103 1089 q 112 1058 103 1067 q 135 1048 121 1048 q 158 1058 149 1048 q 167 1080 167 1067 q 163 1097 167 1089 m 135 975 q 219 940 184 975 q 254 854 254 905 l 254 118 q 219 33 254 68 q 135 -3 184 -3 q 49 33 85 -3 q 14 118 14 68 l 14 854 q 49 940 14 904 q 135 975 85 975 m 147 125 l 147 847 q 143 856 147 852 q 135 860 140 860 q 125 856 129 860 q 121 847 121 852 l 121 125 q 125 116 121 119 q 135 113 129 113 q 143 116 140 113 q 147 125 147 119 z "},"ŏ":{"ha":268,"x_min":14,"x_max":254,"o":"m 163 819 l 193 836 q 201 803 201 822 q 182 756 201 776 q 135 736 163 736 q 88 756 108 736 q 68 803 68 776 q 77 836 68 821 l 107 819 q 103 803 103 811 q 112 780 103 789 q 135 771 121 771 q 158 780 149 771 q 167 803 167 789 q 163 819 167 811 m 135 697 q 219 662 184 697 q 254 576 254 627 l 254 118 q 219 33 254 68 q 135 -3 184 -3 q 49 33 85 -3 q 14 118 14 68 l 14 576 q 49 662 14 626 q 135 697 85 697 m 147 125 l 147 570 q 143 578 147 575 q 135 582 140 582 q 125 578 129 582 q 121 570 121 575 l 121 125 q 125 116 121 119 q 135 113 129 113 q 143 116 140 113 q 147 125 147 119 z "},"Ő":{"ha":268,"x_min":14,"x_max":254,"o":"m 168 1028 l 132 1028 l 174 1168 l 210 1168 l 168 1028 m 96 1028 l 60 1028 l 102 1168 l 138 1168 l 96 1028 m 135 975 q 219 940 184 975 q 254 854 254 905 l 254 118 q 219 33 254 68 q 135 -3 184 -3 q 49 33 85 -3 q 14 118 14 68 l 14 854 q 49 940 14 904 q 135 975 85 975 m 147 125 l 147 847 q 143 856 147 852 q 135 860 140 860 q 125 856 129 860 q 121 847 121 852 l 121 125 q 125 116 121 119 q 135 113 129 113 q 143 116 140 113 q 147 125 147 119 z "},"ő":{"ha":268,"x_min":14,"x_max":254,"o":"m 168 750 l 132 750 l 174 890 l 210 890 l 168 750 m 96 750 l 60 750 l 102 890 l 138 890 l 96 750 m 135 697 q 219 662 184 697 q 254 576 254 627 l 254 118 q 219 33 254 68 q 135 -3 184 -3 q 49 33 85 -3 q 14 118 14 68 l 14 576 q 49 662 14 626 q 135 697 85 697 m 147 125 l 147 570 q 143 578 147 575 q 135 582 140 582 q 125 578 129 582 q 121 570 121 575 l 121 125 q 125 116 121 119 q 135 113 129 113 q 143 116 140 113 q 147 125 147 119 z "},"Œ":{"ha":329,"x_min":14,"x_max":322,"o":"m 135 972 l 322 972 l 322 857 l 254 857 l 254 541 l 321 541 l 321 432 l 254 432 l 254 115 l 322 115 l 322 0 l 139 0 q 50 35 86 0 q 14 121 14 71 l 14 851 q 50 937 14 901 q 135 972 85 972 m 147 127 l 147 844 q 143 853 147 850 q 135 857 140 857 q 125 853 129 857 q 121 844 121 850 l 121 127 q 125 119 121 122 q 135 115 129 115 q 143 119 140 115 q 147 127 147 122 z "},"œ":{"ha":401,"x_min":14,"x_max":387,"o":"m 135 694 l 268 694 q 352 659 317 694 q 387 574 387 624 l 387 293 l 254 293 l 254 115 l 268 115 q 277 119 273 115 q 281 127 281 123 l 281 252 l 387 252 l 387 121 q 352 35 387 71 q 268 0 317 0 l 135 0 q 49 36 85 0 q 14 121 14 71 l 14 574 q 49 659 14 623 q 135 694 85 694 m 147 115 l 147 579 l 135 579 q 125 576 129 579 q 121 567 121 572 l 121 127 q 125 119 121 122 q 135 115 129 115 l 147 115 m 281 400 l 281 567 q 277 575 281 572 q 268 579 273 579 l 254 579 l 254 400 l 281 400 z "},"Ŕ":{"ha":268,"x_min":14,"x_max":254,"o":"m 132 1028 l 96 1028 l 138 1168 l 174 1168 l 132 1028 m 111 0 l 14 0 l 14 972 l 135 972 q 219 937 184 972 q 254 851 254 901 l 254 504 q 221 422 254 456 l 254 0 l 151 0 l 121 385 l 111 385 l 111 0 m 147 513 l 147 844 q 143 853 147 850 q 135 857 140 857 l 121 857 l 121 500 l 135 500 q 143 504 140 500 q 147 513 147 507 z "},"ŕ":{"ha":264,"x_min":14,"x_max":254,"o":"m 129 750 l 93 750 l 135 890 l 171 890 l 129 750 m 254 627 l 254 376 l 147 376 l 147 568 q 143 578 147 574 q 135 582 140 582 q 125 578 129 582 q 121 568 121 574 l 121 0 l 14 0 l 14 694 l 111 694 l 111 627 l 121 627 q 140 676 121 656 q 187 697 160 697 q 235 676 215 697 q 254 627 254 656 z "},"Ŗ":{"ha":268,"x_min":14,"x_max":254,"o":"m 111 0 l 14 0 l 14 972 l 135 972 q 219 937 184 972 q 254 851 254 901 l 254 504 q 221 422 254 456 l 254 0 l 151 0 l 121 385 l 111 385 l 111 0 m 147 513 l 147 844 q 143 853 147 850 q 135 857 140 857 l 121 857 l 121 500 l 135 500 q 143 504 140 500 q 147 513 147 507 m 132 -196 l 96 -196 l 138 -56 l 174 -56 l 132 -196 z "},"ŗ":{"ha":264,"x_min":14,"x_max":254,"o":"m 254 627 l 254 376 l 147 376 l 147 568 q 143 578 147 574 q 135 582 140 582 q 125 578 129 582 q 121 568 121 574 l 121 0 l 14 0 l 14 694 l 111 694 l 111 627 l 121 627 q 140 676 121 656 q 187 697 160 697 q 235 676 215 697 q 254 627 254 656 m 129 -196 l 93 -196 l 135 -56 l 171 -56 l 129 -196 z "},"Ř":{"ha":268,"x_min":14,"x_max":254,"o":"m 216 1096 l 134 1014 l 52 1096 l 77 1121 l 134 1063 l 192 1121 l 216 1096 m 111 0 l 14 0 l 14 972 l 135 972 q 219 937 184 972 q 254 851 254 901 l 254 504 q 221 422 254 456 l 254 0 l 151 0 l 121 385 l 111 385 l 111 0 m 147 513 l 147 844 q 143 853 147 850 q 135 857 140 857 l 121 857 l 121 500 l 135 500 q 143 504 140 500 q 147 513 147 507 z "},"ř":{"ha":264,"x_min":14,"x_max":254,"o":"m 215 818 l 132 736 l 50 818 l 75 843 l 132 785 l 191 843 l 215 818 m 254 627 l 254 376 l 147 376 l 147 568 q 143 578 147 574 q 135 582 140 582 q 125 578 129 582 q 121 568 121 574 l 121 0 l 14 0 l 14 694 l 111 694 l 111 627 l 121 627 q 140 676 121 656 q 187 697 160 697 q 235 676 215 697 q 254 627 254 656 z "},"Ś":{"ha":268,"x_min":14,"x_max":254,"o":"m 132 1028 l 96 1028 l 138 1168 l 174 1168 l 132 1028 m 14 575 l 14 854 q 49 940 14 904 q 135 975 85 975 q 219 940 184 975 q 254 854 254 905 l 254 587 l 147 587 l 147 847 q 143 856 147 852 q 135 860 140 860 q 125 856 129 860 q 121 847 121 852 l 121 587 q 129 562 121 574 q 146 541 138 549 q 172 521 155 534 q 215 486 201 500 q 242 449 230 473 q 254 397 254 426 l 254 118 q 219 33 254 68 q 135 -3 184 -3 q 49 33 85 -3 q 14 118 14 68 l 14 383 l 121 383 l 121 125 q 125 116 121 119 q 135 113 129 113 q 143 116 140 113 q 147 125 147 119 l 147 383 q 136 413 147 399 q 94 450 125 427 q 65 473 75 465 q 41 498 55 481 q 20 533 26 514 q 14 575 14 552 z "},"ś":{"ha":268,"x_min":14,"x_max":254,"o":"m 132 750 l 96 750 l 138 890 l 174 890 l 132 750 m 14 435 l 14 576 q 49 662 14 626 q 135 697 85 697 q 219 662 184 697 q 254 576 254 627 l 254 449 l 147 449 l 147 570 q 143 578 147 575 q 135 582 140 582 q 125 578 129 582 q 121 570 121 575 l 121 449 q 129 423 121 436 q 146 402 137 410 q 172 382 155 394 q 215 347 201 361 q 242 310 230 334 q 254 258 254 287 l 254 118 q 219 33 254 68 q 135 -3 184 -3 q 49 33 85 -3 q 14 118 14 68 l 14 244 l 121 244 l 121 125 q 125 116 121 119 q 135 113 129 113 q 143 116 140 113 q 147 125 147 119 l 147 244 q 139 270 147 257 q 122 291 131 283 q 96 311 113 299 q 53 346 67 332 q 26 383 38 359 q 14 435 14 406 z "},"Ŝ":{"ha":268,"x_min":14,"x_max":254,"o":"m 52 1053 l 134 1135 l 216 1053 l 192 1028 l 134 1086 l 77 1028 l 52 1053 m 14 575 l 14 854 q 49 940 14 904 q 135 975 85 975 q 219 940 184 975 q 254 854 254 905 l 254 587 l 147 587 l 147 847 q 143 856 147 852 q 135 860 140 860 q 125 856 129 860 q 121 847 121 852 l 121 587 q 129 562 121 574 q 146 541 138 549 q 172 521 155 534 q 215 486 201 500 q 242 449 230 473 q 254 397 254 426 l 254 118 q 219 33 254 68 q 135 -3 184 -3 q 49 33 85 -3 q 14 118 14 68 l 14 383 l 121 383 l 121 125 q 125 116 121 119 q 135 113 129 113 q 143 116 140 113 q 147 125 147 119 l 147 383 q 136 413 147 399 q 94 450 125 427 q 65 473 75 465 q 41 498 55 481 q 20 533 26 514 q 14 575 14 552 z "},"ŝ":{"ha":268,"x_min":14,"x_max":254,"o":"m 52 775 l 134 857 l 216 775 l 192 750 l 134 808 l 77 750 l 52 775 m 14 435 l 14 576 q 49 662 14 626 q 135 697 85 697 q 219 662 184 697 q 254 576 254 627 l 254 449 l 147 449 l 147 570 q 143 578 147 575 q 135 582 140 582 q 125 578 129 582 q 121 570 121 575 l 121 449 q 129 423 121 436 q 146 402 137 410 q 172 382 155 394 q 215 347 201 361 q 242 310 230 334 q 254 258 254 287 l 254 118 q 219 33 254 68 q 135 -3 184 -3 q 49 33 85 -3 q 14 118 14 68 l 14 244 l 121 244 l 121 125 q 125 116 121 119 q 135 113 129 113 q 143 116 140 113 q 147 125 147 119 l 147 244 q 139 270 147 257 q 122 291 131 283 q 96 311 113 299 q 53 346 67 332 q 26 383 38 359 q 14 435 14 406 z "},"Ş":{"ha":268,"x_min":14,"x_max":254,"o":"m 14 575 l 14 854 q 49 940 14 904 q 135 975 85 975 q 219 940 184 975 q 254 854 254 905 l 254 587 l 147 587 l 147 847 q 143 856 147 852 q 135 860 140 860 q 125 856 129 860 q 121 847 121 852 l 121 587 q 129 562 121 574 q 146 541 138 549 q 172 521 155 534 q 215 486 201 500 q 242 449 230 473 q 254 397 254 426 l 254 118 q 225 39 254 73 q 153 -1 197 5 l 153 -29 q 188 -53 174 -35 q 201 -94 201 -71 q 182 -141 201 -121 q 135 -161 163 -161 q 88 -141 108 -161 q 68 -94 68 -121 l 103 -94 q 112 -117 103 -108 q 135 -126 121 -126 q 158 -117 149 -126 q 167 -94 167 -108 q 158 -72 167 -81 q 135 -62 149 -62 l 118 -62 l 118 -1 q 44 39 74 5 q 14 118 14 73 l 14 383 l 121 383 l 121 125 q 125 116 121 119 q 135 113 129 113 q 143 116 140 113 q 147 125 147 119 l 147 383 q 136 413 147 399 q 94 450 125 427 q 65 473 75 465 q 41 498 55 481 q 20 533 26 514 q 14 575 14 552 z "},"ş":{"ha":268,"x_min":14,"x_max":254,"o":"m 14 435 l 14 576 q 49 662 14 626 q 135 697 85 697 q 219 662 184 697 q 254 576 254 627 l 254 449 l 147 449 l 147 570 q 143 578 147 575 q 135 582 140 582 q 125 578 129 582 q 121 570 121 575 l 121 449 q 129 423 121 436 q 146 402 137 410 q 172 382 155 394 q 215 347 201 361 q 242 310 230 334 q 254 258 254 287 l 254 118 q 225 39 254 73 q 153 -1 197 5 l 153 -29 q 188 -53 174 -35 q 201 -94 201 -71 q 182 -141 201 -121 q 135 -161 163 -161 q 88 -141 108 -161 q 68 -94 68 -121 l 103 -94 q 112 -117 103 -108 q 135 -126 121 -126 q 158 -117 149 -126 q 167 -94 167 -108 q 158 -72 167 -81 q 135 -62 149 -62 l 118 -62 l 118 -1 q 44 39 74 5 q 14 118 14 73 l 14 244 l 121 244 l 121 125 q 125 116 121 119 q 135 113 129 113 q 143 116 140 113 q 147 125 147 119 l 147 244 q 139 270 147 257 q 122 291 131 283 q 96 311 113 299 q 53 346 67 332 q 26 383 38 359 q 14 435 14 406 z "},"Š":{"ha":268,"x_min":14,"x_max":254,"o":"m 216 1096 l 134 1014 l 52 1096 l 77 1121 l 134 1063 l 192 1121 l 216 1096 m 14 575 l 14 854 q 49 940 14 904 q 135 975 85 975 q 219 940 184 975 q 254 854 254 905 l 254 587 l 147 587 l 147 847 q 143 856 147 852 q 135 860 140 860 q 125 856 129 860 q 121 847 121 852 l 121 587 q 129 562 121 574 q 146 541 138 549 q 172 521 155 534 q 215 486 201 500 q 242 449 230 473 q 254 397 254 426 l 254 118 q 219 33 254 68 q 135 -3 184 -3 q 49 33 85 -3 q 14 118 14 68 l 14 383 l 121 383 l 121 125 q 125 116 121 119 q 135 113 129 113 q 143 116 140 113 q 147 125 147 119 l 147 383 q 136 413 147 399 q 94 450 125 427 q 65 473 75 465 q 41 498 55 481 q 20 533 26 514 q 14 575 14 552 z "},"š":{"ha":268,"x_min":14,"x_max":254,"o":"m 216 818 l 134 736 l 52 818 l 77 843 l 134 785 l 192 843 l 216 818 m 14 435 l 14 576 q 49 662 14 626 q 135 697 85 697 q 219 662 184 697 q 254 576 254 627 l 254 449 l 147 449 l 147 570 q 143 578 147 575 q 135 582 140 582 q 125 578 129 582 q 121 570 121 575 l 121 449 q 129 423 121 436 q 146 402 137 410 q 172 382 155 394 q 215 347 201 361 q 242 310 230 334 q 254 258 254 287 l 254 118 q 219 33 254 68 q 135 -3 184 -3 q 49 33 85 -3 q 14 118 14 68 l 14 244 l 121 244 l 121 125 q 125 116 121 119 q 135 113 129 113 q 143 116 140 113 q 147 125 147 119 l 147 244 q 139 270 147 257 q 122 291 131 283 q 96 311 113 299 q 53 346 67 332 q 26 383 38 359 q 14 435 14 406 z "},"Ţ":{"ha":215,"x_min":7,"x_max":208,"o":"m 7 972 l 208 972 l 208 857 l 161 857 l 161 0 l 54 0 l 54 857 l 7 857 l 7 972 m 106 -196 l 69 -196 l 111 -56 l 147 -56 l 106 -196 z "},"ţ":{"ha":187,"x_min":7,"x_max":180,"o":"m 179 587 l 140 587 l 140 115 l 180 115 l 180 0 l 109 0 q 55 22 77 0 q 33 75 33 44 l 33 587 l 7 587 l 7 694 l 33 694 l 33 903 l 140 930 l 140 694 l 179 694 l 179 587 m 92 -196 l 56 -196 l 97 -56 l 134 -56 l 92 -196 z "},"Ť":{"ha":215,"x_min":7,"x_max":208,"o":"m 191 1096 l 107 1014 l 25 1096 l 50 1121 l 107 1063 l 165 1121 l 191 1096 m 7 972 l 208 972 l 208 857 l 161 857 l 161 0 l 54 0 l 54 857 l 7 857 l 7 972 z "},"ť":{"ha":330,"x_min":7,"x_max":306,"o":"m 199 806 l 199 972 l 306 972 l 306 806 l 288 729 l 222 729 l 240 806 l 199 806 m 179 587 l 140 587 l 140 115 l 180 115 l 180 0 l 109 0 q 55 22 77 0 q 33 75 33 44 l 33 587 l 7 587 l 7 694 l 33 694 l 33 903 l 140 930 l 140 694 l 179 694 l 179 587 z "},"Ŧ":{"ha":215,"x_min":7,"x_max":208,"o":"m 7 972 l 208 972 l 208 857 l 161 857 l 161 694 l 187 694 l 187 579 l 161 579 l 161 0 l 54 0 l 54 579 l 28 579 l 28 694 l 54 694 l 54 857 l 7 857 l 7 972 z "},"ŧ":{"ha":187,"x_min":7,"x_max":180,"o":"m 179 587 l 140 587 l 140 453 l 174 453 l 174 346 l 140 346 l 140 115 l 180 115 l 180 0 l 109 0 q 55 22 77 0 q 33 75 33 44 l 33 346 l 14 346 l 14 453 l 33 453 l 33 587 l 7 587 l 7 694 l 33 694 l 33 903 l 140 930 l 140 694 l 179 694 l 179 587 z "},"Ũ":{"ha":268,"x_min":7,"x_max":261,"o":"m 32 1022 l 7 1047 l 24 1064 q 86 1089 51 1089 q 143 1067 121 1089 q 184 1048 161 1048 q 220 1064 204 1048 l 236 1080 l 261 1057 l 244 1039 q 182 1014 219 1014 q 125 1036 147 1014 q 85 1054 107 1054 q 49 1039 64 1054 l 32 1022 m 147 972 l 254 972 l 254 118 q 219 33 254 68 q 135 -3 184 -3 q 49 33 85 -3 q 14 118 14 68 l 14 972 l 121 972 l 121 125 q 125 116 121 119 q 135 113 129 113 q 143 116 140 113 q 147 125 147 119 l 147 972 z "},"ũ":{"ha":268,"x_min":7,"x_max":261,"o":"m 32 745 l 7 770 l 24 786 q 86 811 51 811 q 143 789 121 811 q 184 771 161 771 q 220 786 205 771 l 236 803 l 261 779 l 244 761 q 182 736 219 736 q 125 758 147 736 q 85 777 106 777 q 49 761 64 777 l 32 745 m 147 126 l 147 694 l 254 694 l 254 0 l 157 0 l 157 66 l 147 66 q 128 18 147 38 q 81 -3 109 -3 q 34 18 54 -3 q 14 66 14 39 l 14 694 l 121 694 l 121 126 q 135 113 121 113 q 147 126 147 113 z "},"Ū":{"ha":268,"x_min":14,"x_max":254,"o":"m 214 1028 l 54 1028 l 54 1063 l 214 1063 l 214 1028 m 147 972 l 254 972 l 254 118 q 219 33 254 68 q 135 -3 184 -3 q 49 33 85 -3 q 14 118 14 68 l 14 972 l 121 972 l 121 125 q 125 116 121 119 q 135 113 129 113 q 143 116 140 113 q 147 125 147 119 l 147 972 z "},"ū":{"ha":268,"x_min":14,"x_max":254,"o":"m 214 750 l 54 750 l 54 785 l 214 785 l 214 750 m 147 126 l 147 694 l 254 694 l 254 0 l 157 0 l 157 66 l 147 66 q 128 18 147 38 q 81 -3 109 -3 q 34 18 54 -3 q 14 66 14 39 l 14 694 l 121 694 l 121 126 q 135 113 121 113 q 147 126 147 113 z "},"Ŭ":{"ha":268,"x_min":14,"x_max":254,"o":"m 163 1097 l 193 1114 q 201 1080 201 1099 q 182 1034 201 1053 q 135 1014 163 1014 q 88 1034 108 1014 q 68 1080 68 1053 q 77 1114 68 1098 l 107 1097 q 103 1080 103 1089 q 112 1058 103 1067 q 135 1048 121 1048 q 158 1058 149 1048 q 167 1080 167 1067 q 163 1097 167 1089 m 147 972 l 254 972 l 254 118 q 219 33 254 68 q 135 -3 184 -3 q 49 33 85 -3 q 14 118 14 68 l 14 972 l 121 972 l 121 125 q 125 116 121 119 q 135 113 129 113 q 143 116 140 113 q 147 125 147 119 l 147 972 z "},"ŭ":{"ha":268,"x_min":14,"x_max":254,"o":"m 163 819 l 193 836 q 201 803 201 822 q 182 756 201 776 q 135 736 163 736 q 88 756 108 736 q 68 803 68 776 q 77 836 68 821 l 107 819 q 103 803 103 811 q 112 780 103 789 q 135 771 121 771 q 158 780 149 771 q 167 803 167 789 q 163 819 167 811 m 147 126 l 147 694 l 254 694 l 254 0 l 157 0 l 157 66 l 147 66 q 128 18 147 38 q 81 -3 109 -3 q 34 18 54 -3 q 14 66 14 39 l 14 694 l 121 694 l 121 126 q 135 113 121 113 q 147 126 147 113 z "},"Ů":{"ha":268,"x_min":14,"x_max":254,"o":"m 68 1067 q 88 1114 68 1095 q 135 1133 108 1133 q 182 1114 163 1133 q 201 1067 201 1095 q 182 1020 201 1040 q 135 1000 163 1000 q 88 1020 108 1000 q 68 1067 68 1040 m 158 1044 q 162 1049 158 1044 q 167 1067 167 1053 q 158 1089 167 1080 q 135 1099 149 1099 q 112 1089 121 1099 q 103 1067 103 1080 q 112 1044 103 1053 q 135 1035 121 1035 q 158 1044 149 1035 m 147 972 l 254 972 l 254 118 q 219 33 254 68 q 135 -3 184 -3 q 49 33 85 -3 q 14 118 14 68 l 14 972 l 121 972 l 121 125 q 125 116 121 119 q 135 113 129 113 q 143 116 140 113 q 147 125 147 119 l 147 972 z "},"ů":{"ha":268,"x_min":14,"x_max":254,"o":"m 68 789 q 88 836 68 817 q 135 856 108 856 q 182 836 163 856 q 201 789 201 817 q 182 742 201 762 q 135 722 163 722 q 88 742 108 722 q 68 789 68 762 m 158 766 q 162 771 158 766 q 167 789 167 775 q 158 811 167 802 q 135 821 149 821 q 112 811 121 821 q 103 789 103 802 q 112 766 103 775 q 135 757 121 757 q 158 766 149 757 m 147 126 l 147 694 l 254 694 l 254 0 l 157 0 l 157 66 l 147 66 q 128 18 147 38 q 81 -3 109 -3 q 34 18 54 -3 q 14 66 14 39 l 14 694 l 121 694 l 121 126 q 135 113 121 113 q 147 126 147 113 z "},"Ű":{"ha":268,"x_min":14,"x_max":254,"o":"m 168 1028 l 132 1028 l 174 1168 l 210 1168 l 168 1028 m 96 1028 l 60 1028 l 102 1168 l 138 1168 l 96 1028 m 147 972 l 254 972 l 254 118 q 219 33 254 68 q 135 -3 184 -3 q 49 33 85 -3 q 14 118 14 68 l 14 972 l 121 972 l 121 125 q 125 116 121 119 q 135 113 129 113 q 143 116 140 113 q 147 125 147 119 l 147 972 z "},"ű":{"ha":268,"x_min":14,"x_max":254,"o":"m 168 750 l 132 750 l 174 890 l 210 890 l 168 750 m 96 750 l 60 750 l 102 890 l 138 890 l 96 750 m 147 126 l 147 694 l 254 694 l 254 0 l 157 0 l 157 66 l 147 66 q 128 18 147 38 q 81 -3 109 -3 q 34 18 54 -3 q 14 66 14 39 l 14 694 l 121 694 l 121 126 q 135 113 121 113 q 147 126 147 113 z "},"Ų":{"ha":268,"x_min":14,"x_max":254,"o":"m 147 972 l 254 972 l 254 118 q 205 21 254 58 l 205 -29 q 241 -53 227 -35 q 254 -94 254 -71 q 235 -141 254 -121 q 187 -161 215 -161 q 140 -141 160 -161 q 121 -94 121 -121 l 155 -94 q 164 -117 155 -108 q 187 -126 174 -126 q 210 -117 201 -126 q 220 -94 220 -108 q 210 -72 220 -81 q 187 -62 201 -62 l 171 -62 l 171 3 q 135 -3 157 -3 q 49 33 85 -3 q 14 118 14 68 l 14 972 l 121 972 l 121 125 q 125 116 121 119 q 135 113 129 113 q 143 116 140 113 q 147 125 147 119 l 147 972 z "},"ų":{"ha":268,"x_min":14,"x_max":254,"o":"m 147 126 l 147 694 l 254 694 l 254 0 l 192 0 l 192 -29 q 227 -53 213 -35 q 240 -94 240 -71 q 221 -141 240 -121 q 174 -161 201 -161 q 127 -141 146 -161 q 107 -94 107 -121 l 142 -94 q 151 -117 142 -108 q 174 -126 160 -126 q 196 -117 187 -126 q 205 -94 205 -108 q 196 -72 205 -81 q 174 -62 187 -62 l 157 -62 l 157 66 l 147 66 q 128 18 147 38 q 81 -3 109 -3 q 34 18 54 -3 q 14 66 14 39 l 14 694 l 121 694 l 121 126 q 135 113 121 113 q 147 126 147 113 z "},"Ŵ":{"ha":412,"x_min":9,"x_max":403,"o":"m 123 1053 l 205 1135 l 289 1053 l 264 1028 l 205 1086 l 149 1028 l 123 1053 m 296 972 l 403 972 l 397 571 l 364 0 l 239 0 l 211 754 l 201 754 l 174 0 l 49 0 l 17 571 l 9 972 l 118 972 l 131 218 l 140 218 l 153 972 l 260 972 l 272 218 l 282 218 l 296 972 z "},"ŵ":{"ha":404,"x_min":9,"x_max":395,"o":"m 119 775 l 201 857 l 285 775 l 260 750 l 201 808 l 144 750 l 119 775 m 256 694 l 268 122 l 278 122 l 286 694 l 395 694 l 387 408 l 359 0 l 235 0 l 207 519 l 197 519 l 170 0 l 45 0 l 17 408 l 9 694 l 118 694 l 126 122 l 136 122 l 149 694 l 256 694 z "},"Ŷ":{"ha":271,"x_min":9,"x_max":261,"o":"m 53 1053 l 135 1135 l 218 1053 l 193 1028 l 135 1086 l 78 1028 l 53 1053 m 153 972 l 261 972 l 254 720 l 215 371 l 189 371 l 189 0 l 82 0 l 82 371 l 56 371 l 17 720 l 9 972 l 118 972 l 131 486 l 140 486 l 153 972 z "},"ŷ":{"ha":268,"x_min":14,"x_max":254,"o":"m 52 775 l 134 857 l 216 775 l 192 750 l 134 808 l 77 750 l 52 775 m 147 694 l 254 694 l 254 -118 q 219 -203 254 -168 q 135 -239 184 -239 q 49 -203 85 -239 q 14 -118 14 -168 l 14 -41 l 121 -41 l 121 -111 q 125 -120 121 -117 q 135 -123 129 -123 q 143 -120 140 -123 q 147 -111 147 -117 l 147 66 l 138 66 l 138 61 q 120 16 138 35 q 77 -3 102 -3 q 32 16 50 -3 q 14 61 14 34 l 14 694 l 121 694 l 121 126 q 125 117 121 121 q 135 113 129 113 q 143 117 140 113 q 147 126 147 121 l 147 694 z "},"Ÿ":{"ha":271,"x_min":9,"x_max":261,"o":"m 184 1156 l 256 1084 l 184 1014 l 136 1064 l 86 1014 l 16 1084 l 86 1156 l 136 1105 l 184 1156 m 157 1084 l 184 1057 l 214 1084 l 184 1112 l 157 1084 m 58 1084 l 86 1057 l 114 1084 l 86 1112 l 58 1084 m 153 972 l 261 972 l 254 720 l 215 371 l 189 371 l 189 0 l 82 0 l 82 371 l 56 371 l 17 720 l 9 972 l 118 972 l 131 486 l 140 486 l 153 972 z "},"Ź":{"ha":254,"x_min":7,"x_max":248,"o":"m 125 1028 l 89 1028 l 131 1168 l 167 1168 l 125 1028 m 7 972 l 248 972 l 248 878 l 114 107 l 248 107 l 248 0 l 7 0 l 7 94 l 140 865 l 7 865 l 7 972 z "},"ź":{"ha":254,"x_min":7,"x_max":248,"o":"m 125 750 l 89 750 l 131 890 l 167 890 l 125 750 m 7 694 l 248 694 l 248 600 l 118 107 l 248 107 l 248 0 l 7 0 l 7 94 l 138 587 l 7 587 l 7 694 z "},"Ż":{"ha":254,"x_min":7,"x_max":248,"o":"m 127 1156 l 199 1084 l 127 1014 l 57 1084 l 127 1156 m 100 1084 l 127 1057 l 155 1084 l 127 1112 l 100 1084 m 7 972 l 248 972 l 248 878 l 114 107 l 248 107 l 248 0 l 7 0 l 7 94 l 140 865 l 7 865 l 7 972 z "},"ż":{"ha":254,"x_min":7,"x_max":248,"o":"m 127 878 l 199 807 l 127 736 l 57 807 l 127 878 m 100 807 l 127 779 l 155 807 l 127 835 l 100 807 m 7 694 l 248 694 l 248 600 l 118 107 l 248 107 l 248 0 l 7 0 l 7 94 l 138 587 l 7 587 l 7 694 z "},"Ž":{"ha":254,"x_min":7,"x_max":248,"o":"m 210 1096 l 126 1014 l 45 1096 l 69 1121 l 126 1063 l 184 1121 l 210 1096 m 7 972 l 248 972 l 248 878 l 114 107 l 248 107 l 248 0 l 7 0 l 7 94 l 140 865 l 7 865 l 7 972 z "},"ž":{"ha":254,"x_min":7,"x_max":248,"o":"m 210 818 l 126 736 l 45 818 l 69 843 l 126 785 l 184 843 l 210 818 m 7 694 l 248 694 l 248 600 l 118 107 l 248 107 l 248 0 l 7 0 l 7 94 l 138 587 l 7 587 l 7 694 z "},"Ǎ":{"ha":264,"x_min":7,"x_max":257,"o":"m 215 1096 l 132 1014 l 50 1096 l 75 1121 l 132 1063 l 191 1121 l 215 1096 m 46 972 l 220 972 l 257 107 l 257 0 l 151 0 l 146 278 l 118 278 l 113 0 l 7 0 l 7 107 l 46 972 m 127 831 l 119 385 l 144 385 l 138 831 l 127 831 z "},"ǎ":{"ha":268,"x_min":14,"x_max":254,"o":"m 216 818 l 134 736 l 52 818 l 77 843 l 134 785 l 192 843 l 216 818 m 14 66 l 14 380 q 32 427 14 408 q 77 446 51 446 q 120 427 102 446 q 138 380 138 408 l 138 376 l 147 376 l 147 570 q 143 578 147 575 q 135 582 140 582 q 125 578 129 582 q 121 570 121 575 l 121 485 l 14 485 l 14 576 q 49 662 14 626 q 135 697 85 697 q 219 662 184 697 q 254 576 254 627 l 254 0 l 157 0 l 157 66 l 147 66 q 128 18 147 38 q 81 -3 109 -3 q 34 18 54 -3 q 14 66 14 39 m 121 317 l 121 126 q 135 113 121 113 q 147 126 147 113 l 147 317 q 143 326 147 322 q 135 330 140 330 q 125 326 129 330 q 121 317 121 322 z "},"Ǐ":{"ha":134,"x_min":-16,"x_max":150,"o":"m 150 1096 l 66 1014 l -16 1096 l 9 1121 l 66 1063 l 125 1121 l 150 1096 m 14 0 l 14 972 l 121 972 l 121 0 l 14 0 z "},"ǐ":{"ha":134,"x_min":-16,"x_max":150,"o":"m 150 818 l 66 736 l -16 818 l 9 843 l 66 785 l 125 843 l 150 818 m 14 0 l 14 694 l 121 694 l 121 0 l 14 0 z "},"Ǒ":{"ha":268,"x_min":14,"x_max":254,"o":"m 216 1096 l 134 1014 l 52 1096 l 77 1121 l 134 1063 l 192 1121 l 216 1096 m 135 975 q 219 940 184 975 q 254 854 254 905 l 254 118 q 219 33 254 68 q 135 -3 184 -3 q 49 33 85 -3 q 14 118 14 68 l 14 854 q 49 940 14 904 q 135 975 85 975 m 147 125 l 147 847 q 143 856 147 852 q 135 860 140 860 q 125 856 129 860 q 121 847 121 852 l 121 125 q 125 116 121 119 q 135 113 129 113 q 143 116 140 113 q 147 125 147 119 z "},"ǒ":{"ha":268,"x_min":14,"x_max":254,"o":"m 216 818 l 134 736 l 52 818 l 77 843 l 134 785 l 192 843 l 216 818 m 135 697 q 219 662 184 697 q 254 576 254 627 l 254 118 q 219 33 254 68 q 135 -3 184 -3 q 49 33 85 -3 q 14 118 14 68 l 14 576 q 49 662 14 626 q 135 697 85 697 m 147 125 l 147 570 q 143 578 147 575 q 135 582 140 582 q 125 578 129 582 q 121 570 121 575 l 121 125 q 125 116 121 119 q 135 113 129 113 q 143 116 140 113 q 147 125 147 119 z "},"Ǔ":{"ha":268,"x_min":14,"x_max":254,"o":"m 216 1096 l 134 1014 l 52 1096 l 77 1121 l 134 1063 l 192 1121 l 216 1096 m 147 972 l 254 972 l 254 118 q 219 33 254 68 q 135 -3 184 -3 q 49 33 85 -3 q 14 118 14 68 l 14 972 l 121 972 l 121 125 q 125 116 121 119 q 135 113 129 113 q 143 116 140 113 q 147 125 147 119 l 147 972 z "},"ǔ":{"ha":268,"x_min":14,"x_max":254,"o":"m 216 818 l 134 736 l 52 818 l 77 843 l 134 785 l 192 843 l 216 818 m 147 126 l 147 694 l 254 694 l 254 0 l 157 0 l 157 66 l 147 66 q 128 18 147 38 q 81 -3 109 -3 q 34 18 54 -3 q 14 66 14 39 l 14 694 l 121 694 l 121 126 q 135 113 121 113 q 147 126 147 113 z "},"Ǧ":{"ha":268,"x_min":14,"x_max":254,"o":"m 216 1096 l 134 1014 l 52 1096 l 77 1121 l 134 1063 l 192 1121 l 216 1096 m 135 975 q 219 940 184 975 q 254 854 254 905 l 254 646 l 147 646 l 147 847 q 143 856 147 852 q 135 860 140 860 q 125 856 129 860 q 121 847 121 852 l 121 125 q 125 116 121 119 q 135 113 129 113 q 143 116 140 113 q 147 125 147 119 l 147 432 l 136 432 l 136 539 l 254 539 l 254 118 q 219 33 254 68 q 135 -3 184 -3 q 49 33 85 -3 q 14 118 14 68 l 14 854 q 49 940 14 904 q 135 975 85 975 z "},"ǧ":{"ha":268,"x_min":14,"x_max":254,"o":"m 216 818 l 134 736 l 52 818 l 77 843 l 134 785 l 192 843 l 216 818 m 14 61 l 14 627 q 34 676 14 656 q 81 697 54 697 q 128 676 109 697 q 147 627 147 656 l 157 627 l 157 694 l 254 694 l 254 -118 q 219 -203 254 -168 q 135 -239 184 -239 q 49 -203 85 -239 q 14 -118 14 -168 l 14 -41 l 121 -41 l 121 -111 q 125 -120 121 -117 q 135 -123 129 -123 q 143 -120 140 -123 q 147 -111 147 -117 l 147 66 l 138 66 l 138 61 q 120 16 138 35 q 77 -3 102 -3 q 32 16 50 -3 q 14 61 14 34 m 121 568 l 121 126 q 125 117 121 121 q 135 113 129 113 q 143 117 140 113 q 147 126 147 121 l 147 568 q 143 578 147 574 q 135 582 140 582 q 125 578 129 582 q 121 568 121 574 z "},"Ǩ":{"ha":302,"x_min":14,"x_max":296,"o":"m 235 1096 l 151 1014 l 69 1096 l 94 1121 l 151 1063 l 210 1121 l 235 1096 m 186 972 l 296 972 l 228 486 l 296 0 l 186 0 l 131 429 l 121 429 l 121 0 l 14 0 l 14 972 l 121 972 l 121 543 l 131 543 l 186 972 z "},"ǩ":{"ha":281,"x_min":14,"x_max":275,"o":"m 235 1096 l 151 1014 l 69 1096 l 94 1121 l 151 1063 l 210 1121 l 235 1096 m 14 972 l 121 972 l 121 401 l 131 401 l 167 694 l 275 694 l 232 347 l 275 0 l 167 0 l 131 293 l 121 293 l 121 0 l 14 0 l 14 972 z "},"Ǫ":{"ha":268,"x_min":14,"x_max":254,"o":"m 135 975 q 219 940 184 975 q 254 854 254 905 l 254 118 q 225 39 254 73 q 151 -1 195 5 l 151 -29 q 186 -53 173 -35 q 200 -94 200 -71 q 181 -141 200 -121 q 134 -161 161 -161 q 86 -141 106 -161 q 66 -94 66 -121 l 102 -94 q 111 -117 102 -108 q 134 -126 120 -126 q 156 -117 147 -126 q 165 -94 165 -108 q 156 -72 165 -81 q 134 -62 147 -62 l 117 -62 l 117 -1 q 43 39 73 5 q 14 118 14 73 l 14 854 q 49 940 14 904 q 135 975 85 975 m 147 125 l 147 847 q 143 856 147 852 q 135 860 140 860 q 125 856 129 860 q 121 847 121 852 l 121 125 q 125 116 121 119 q 135 113 129 113 q 143 116 140 113 q 147 125 147 119 z "},"ǫ":{"ha":268,"x_min":14,"x_max":254,"o":"m 135 697 q 219 662 184 697 q 254 576 254 627 l 254 118 q 225 39 254 73 q 151 -1 195 5 l 151 -29 q 186 -53 173 -35 q 200 -94 200 -71 q 181 -141 200 -121 q 134 -161 161 -161 q 86 -141 106 -161 q 66 -94 66 -121 l 102 -94 q 111 -117 102 -108 q 134 -126 120 -126 q 156 -117 147 -126 q 165 -94 165 -108 q 156 -72 165 -81 q 134 -62 147 -62 l 117 -62 l 117 -1 q 43 39 73 5 q 14 118 14 73 l 14 576 q 49 662 14 626 q 135 697 85 697 m 147 125 l 147 570 q 143 578 147 575 q 135 582 140 582 q 125 578 129 582 q 121 570 121 575 l 121 125 q 125 116 121 119 q 135 113 129 113 q 143 116 140 113 q 147 125 147 119 z "},"Ǵ":{"ha":268,"x_min":14,"x_max":254,"o":"m 132 1028 l 96 1028 l 138 1168 l 174 1168 l 132 1028 m 135 975 q 219 940 184 975 q 254 854 254 905 l 254 646 l 147 646 l 147 847 q 143 856 147 852 q 135 860 140 860 q 125 856 129 860 q 121 847 121 852 l 121 125 q 125 116 121 119 q 135 113 129 113 q 143 116 140 113 q 147 125 147 119 l 147 432 l 136 432 l 136 539 l 254 539 l 254 118 q 219 33 254 68 q 135 -3 184 -3 q 49 33 85 -3 q 14 118 14 68 l 14 854 q 49 940 14 904 q 135 975 85 975 z "},"ǵ":{"ha":268,"x_min":14,"x_max":254,"o":"m 132 750 l 96 750 l 138 890 l 174 890 l 132 750 m 14 61 l 14 627 q 34 676 14 656 q 81 697 54 697 q 128 676 109 697 q 147 627 147 656 l 157 627 l 157 694 l 254 694 l 254 -118 q 219 -203 254 -168 q 135 -239 184 -239 q 49 -203 85 -239 q 14 -118 14 -168 l 14 -41 l 121 -41 l 121 -111 q 125 -120 121 -117 q 135 -123 129 -123 q 143 -120 140 -123 q 147 -111 147 -117 l 147 66 l 138 66 l 138 61 q 120 16 138 35 q 77 -3 102 -3 q 32 16 50 -3 q 14 61 14 34 m 121 568 l 121 126 q 125 117 121 121 q 135 113 129 113 q 143 117 140 113 q 147 126 147 121 l 147 568 q 143 578 147 574 q 135 582 140 582 q 125 578 129 582 q 121 568 121 574 z "},"Ǹ":{"ha":294,"x_min":14,"x_max":281,"o":"m 150 1028 l 109 1168 l 144 1168 l 186 1028 l 150 1028 m 172 972 l 281 972 l 281 0 l 172 0 l 132 559 l 122 559 l 122 0 l 14 0 l 14 972 l 122 972 l 163 412 l 172 412 l 172 972 z "},"ǹ":{"ha":268,"x_min":14,"x_max":254,"o":"m 138 750 l 96 890 l 132 890 l 174 750 l 138 750 m 254 627 l 254 0 l 147 0 l 147 568 q 143 578 147 574 q 135 582 140 582 q 125 578 129 582 q 121 568 121 574 l 121 0 l 14 0 l 14 694 l 111 694 l 111 627 l 121 627 q 140 676 121 656 q 187 697 160 697 q 235 676 215 697 q 254 627 254 656 z "},"Ǽ":{"ha":319,"x_min":7,"x_max":313,"o":"m 157 1028 l 121 1028 l 163 1168 l 199 1168 l 157 1028 m 138 278 l 118 278 l 113 0 l 7 0 l 7 107 l 46 972 l 313 972 l 313 857 l 244 857 l 244 541 l 311 541 l 311 432 l 244 432 l 244 115 l 313 115 l 313 0 l 138 0 l 138 278 m 119 385 l 138 385 l 138 831 l 127 831 l 119 385 z "},"ǽ":{"ha":401,"x_min":14,"x_max":387,"o":"m 199 750 l 163 750 l 204 890 l 240 890 l 199 750 m 14 66 l 14 380 q 32 427 14 408 q 77 446 51 446 q 120 427 102 446 q 138 380 138 408 l 138 376 l 147 376 l 147 579 l 135 579 q 125 576 129 579 q 121 567 121 572 l 121 485 l 14 485 l 14 574 q 49 659 14 623 q 135 694 85 694 l 268 694 q 352 659 317 694 q 387 574 387 624 l 387 293 l 254 293 l 254 127 q 268 115 254 115 q 277 119 273 115 q 281 127 281 123 l 281 252 l 387 252 l 387 121 q 353 36 387 71 q 273 0 319 0 l 157 0 l 157 66 l 147 66 q 128 18 147 38 q 81 -3 109 -3 q 34 18 54 -3 q 14 66 14 39 m 281 567 q 277 575 281 572 q 268 579 273 579 l 254 579 l 254 400 l 281 400 l 281 567 m 121 317 l 121 126 q 135 113 121 113 q 147 126 147 113 l 147 317 q 143 326 147 322 q 135 330 140 330 q 125 326 129 330 q 121 317 121 322 z "},"Ǿ":{"ha":268,"x_min":14,"x_max":254,"o":"m 132 1028 l 96 1028 l 138 1168 l 174 1168 l 132 1028 m 135 975 q 212 946 179 975 l 218 972 l 254 972 l 241 909 q 254 854 254 882 l 254 118 q 219 33 254 68 q 135 -3 184 -3 q 56 26 89 -3 l 50 0 l 14 0 l 28 62 q 14 118 14 88 l 14 854 q 49 940 14 904 q 135 975 85 975 m 121 510 l 147 635 l 147 847 q 143 856 147 852 q 135 860 140 860 q 125 856 129 860 q 121 847 121 852 l 121 510 m 147 125 l 147 463 l 121 338 l 121 125 q 125 116 121 119 q 135 113 129 113 q 143 116 140 113 q 147 125 147 119 z "},"ǿ":{"ha":268,"x_min":14,"x_max":254,"o":"m 132 750 l 96 750 l 138 890 l 174 890 l 132 750 m 135 697 q 211 669 176 697 l 218 694 l 254 694 l 237 637 q 254 576 254 609 l 254 118 q 219 33 254 68 q 135 -3 184 -3 q 57 25 89 -3 l 50 0 l 14 0 l 31 57 q 14 118 14 85 l 14 576 q 49 662 14 626 q 135 697 85 697 m 147 454 l 147 570 q 143 578 147 575 q 135 582 140 582 q 125 578 129 582 q 121 570 121 575 l 121 364 l 147 454 m 147 330 l 121 240 l 121 125 q 125 116 121 119 q 135 113 129 113 q 143 116 140 113 q 147 125 147 119 l 147 330 z "},"Ș":{"ha":268,"x_min":14,"x_max":254,"o":"m 14 575 l 14 854 q 49 940 14 904 q 135 975 85 975 q 219 940 184 975 q 254 854 254 905 l 254 587 l 147 587 l 147 847 q 143 856 147 852 q 135 860 140 860 q 125 856 129 860 q 121 847 121 852 l 121 587 q 129 562 121 574 q 146 541 138 549 q 172 521 155 534 q 215 486 201 500 q 242 449 230 473 q 254 397 254 426 l 254 118 q 219 33 254 68 q 135 -3 184 -3 q 49 33 85 -3 q 14 118 14 68 l 14 383 l 121 383 l 121 125 q 125 116 121 119 q 135 113 129 113 q 143 116 140 113 q 147 125 147 119 l 147 383 q 136 413 147 399 q 94 450 125 427 q 65 473 75 465 q 41 498 55 481 q 20 533 26 514 q 14 575 14 552 m 132 -196 l 96 -196 l 138 -56 l 174 -56 l 132 -196 z "},"ș":{"ha":268,"x_min":14,"x_max":254,"o":"m 14 435 l 14 576 q 49 662 14 626 q 135 697 85 697 q 219 662 184 697 q 254 576 254 627 l 254 449 l 147 449 l 147 570 q 143 578 147 575 q 135 582 140 582 q 125 578 129 582 q 121 570 121 575 l 121 449 q 129 423 121 436 q 146 402 137 410 q 172 382 155 394 q 215 347 201 361 q 242 310 230 334 q 254 258 254 287 l 254 118 q 219 33 254 68 q 135 -3 184 -3 q 49 33 85 -3 q 14 118 14 68 l 14 244 l 121 244 l 121 125 q 125 116 121 119 q 135 113 129 113 q 143 116 140 113 q 147 125 147 119 l 147 244 q 139 270 147 257 q 122 291 131 283 q 96 311 113 299 q 53 346 67 332 q 26 383 38 359 q 14 435 14 406 m 132 -196 l 96 -196 l 138 -56 l 174 -56 l 132 -196 z "},"Ț":{"ha":215,"x_min":7,"x_max":208,"o":"m 7 972 l 208 972 l 208 857 l 161 857 l 161 0 l 54 0 l 54 857 l 7 857 l 7 972 m 106 -196 l 69 -196 l 111 -56 l 147 -56 l 106 -196 z "},"ț":{"ha":187,"x_min":7,"x_max":180,"o":"m 179 587 l 140 587 l 140 115 l 180 115 l 180 0 l 109 0 q 55 22 77 0 q 33 75 33 44 l 33 587 l 7 587 l 7 694 l 33 694 l 33 903 l 140 930 l 140 694 l 179 694 l 179 587 m 92 -196 l 56 -196 l 97 -56 l 134 -56 l 92 -196 z "},"Ȟ":{"ha":268,"x_min":14,"x_max":254,"o":"m 216 1096 l 134 1014 l 52 1096 l 77 1121 l 134 1063 l 192 1121 l 216 1096 m 147 972 l 254 972 l 254 0 l 147 0 l 147 432 l 121 432 l 121 0 l 14 0 l 14 972 l 121 972 l 121 541 l 147 541 l 147 972 z "},"ȟ":{"ha":268,"x_min":14,"x_max":254,"o":"m 216 1096 l 134 1014 l 52 1096 l 77 1121 l 134 1063 l 192 1121 l 216 1096 m 254 627 l 254 0 l 147 0 l 147 568 q 143 578 147 574 q 135 582 140 582 q 125 578 129 582 q 121 568 121 574 l 121 0 l 14 0 l 14 972 l 111 972 l 111 627 l 121 627 q 140 676 121 656 q 187 697 160 697 q 235 676 215 697 q 254 627 254 656 z "},"Ȧ":{"ha":264,"x_min":7,"x_max":257,"o":"m 132 1156 l 203 1084 l 132 1014 l 61 1084 l 132 1156 m 104 1084 l 132 1057 l 160 1084 l 132 1112 l 104 1084 m 46 972 l 220 972 l 257 107 l 257 0 l 151 0 l 146 278 l 118 278 l 113 0 l 7 0 l 7 107 l 46 972 m 127 831 l 119 385 l 144 385 l 138 831 l 127 831 z "},"ȧ":{"ha":268,"x_min":14,"x_max":254,"o":"m 135 878 l 205 807 l 135 736 l 64 807 l 135 878 m 107 807 l 135 779 l 163 807 l 135 835 l 107 807 m 14 66 l 14 380 q 32 427 14 408 q 77 446 51 446 q 120 427 102 446 q 138 380 138 408 l 138 376 l 147 376 l 147 570 q 143 578 147 575 q 135 582 140 582 q 125 578 129 582 q 121 570 121 575 l 121 485 l 14 485 l 14 576 q 49 662 14 626 q 135 697 85 697 q 219 662 184 697 q 254 576 254 627 l 254 0 l 157 0 l 157 66 l 147 66 q 128 18 147 38 q 81 -3 109 -3 q 34 18 54 -3 q 14 66 14 39 m 121 317 l 121 126 q 135 113 121 113 q 147 126 147 113 l 147 317 q 143 326 147 322 q 135 330 140 330 q 125 326 129 330 q 121 317 121 322 z "},"Ȩ":{"ha":195,"x_min":14,"x_max":189,"o":"m 14 972 l 189 972 l 189 857 l 121 857 l 121 541 l 187 541 l 187 432 l 121 432 l 121 115 l 189 115 l 189 0 l 118 0 l 118 -29 q 153 -53 140 -35 q 167 -94 167 -71 q 147 -141 167 -121 q 100 -161 127 -161 q 53 -141 73 -161 q 33 -94 33 -121 l 68 -94 q 77 -117 68 -108 q 100 -126 86 -126 q 123 -117 113 -126 q 132 -94 132 -108 q 123 -72 132 -81 q 100 -62 113 -62 l 83 -62 l 83 0 l 14 0 l 14 972 z "},"ȩ":{"ha":268,"x_min":14,"x_max":254,"o":"m 147 252 l 254 252 l 254 118 q 225 39 254 73 q 151 -1 195 5 l 151 -29 q 186 -53 173 -35 q 200 -94 200 -71 q 181 -141 200 -121 q 134 -161 161 -161 q 86 -141 106 -161 q 66 -94 66 -121 l 102 -94 q 111 -117 102 -108 q 134 -126 120 -126 q 156 -117 147 -126 q 165 -94 165 -108 q 156 -72 165 -81 q 134 -62 147 -62 l 117 -62 l 117 -1 q 43 39 73 5 q 14 118 14 73 l 14 576 q 49 662 14 626 q 135 697 85 697 q 219 662 184 697 q 254 576 254 627 l 254 293 l 121 293 l 121 125 q 125 116 121 119 q 135 113 129 113 q 143 116 140 113 q 147 125 147 119 l 147 252 m 147 570 q 143 578 147 575 q 135 582 140 582 q 125 578 129 582 q 121 570 121 575 l 121 400 l 147 400 l 147 570 z "},"Ȯ":{"ha":268,"x_min":14,"x_max":254,"o":"m 135 1156 l 205 1084 l 135 1014 l 64 1084 l 135 1156 m 107 1084 l 135 1057 l 163 1084 l 135 1112 l 107 1084 m 135 975 q 219 940 184 975 q 254 854 254 905 l 254 118 q 219 33 254 68 q 135 -3 184 -3 q 49 33 85 -3 q 14 118 14 68 l 14 854 q 49 940 14 904 q 135 975 85 975 m 147 125 l 147 847 q 143 856 147 852 q 135 860 140 860 q 125 856 129 860 q 121 847 121 852 l 121 125 q 125 116 121 119 q 135 113 129 113 q 143 116 140 113 q 147 125 147 119 z "},"ȯ":{"ha":268,"x_min":14,"x_max":254,"o":"m 135 878 l 205 807 l 135 736 l 64 807 l 135 878 m 107 807 l 135 779 l 163 807 l 135 835 l 107 807 m 135 697 q 219 662 184 697 q 254 576 254 627 l 254 118 q 219 33 254 68 q 135 -3 184 -3 q 49 33 85 -3 q 14 118 14 68 l 14 576 q 49 662 14 626 q 135 697 85 697 m 147 125 l 147 570 q 143 578 147 575 q 135 582 140 582 q 125 578 129 582 q 121 570 121 575 l 121 125 q 125 116 121 119 q 135 113 129 113 q 143 116 140 113 q 147 125 147 119 z "},"Ȳ":{"ha":271,"x_min":9,"x_max":261,"o":"m 215 1028 l 56 1028 l 56 1063 l 215 1063 l 215 1028 m 153 972 l 261 972 l 254 720 l 215 371 l 189 371 l 189 0 l 82 0 l 82 371 l 56 371 l 17 720 l 9 972 l 118 972 l 131 486 l 140 486 l 153 972 z "},"ȳ":{"ha":268,"x_min":14,"x_max":254,"o":"m 214 750 l 54 750 l 54 785 l 214 785 l 214 750 m 147 694 l 254 694 l 254 -118 q 219 -203 254 -168 q 135 -239 184 -239 q 49 -203 85 -239 q 14 -118 14 -168 l 14 -41 l 121 -41 l 121 -111 q 125 -120 121 -117 q 135 -123 129 -123 q 143 -120 140 -123 q 147 -111 147 -117 l 147 66 l 138 66 l 138 61 q 120 16 138 35 q 77 -3 102 -3 q 32 16 50 -3 q 14 61 14 34 l 14 694 l 121 694 l 121 126 q 125 117 121 121 q 135 113 129 113 q 143 117 140 113 q 147 126 147 121 l 147 694 z "},"ȷ":{"ha":134,"x_min":-26,"x_max":121,"o":"m -26 -129 l 14 -129 l 14 694 l 121 694 l 121 -161 q 99 -214 121 -193 q 46 -236 77 -236 l -26 -236 l -26 -129 z "},"μ":{"ha":268,"x_min":14,"x_max":254,"o":"m 254 694 l 254 68 q 235 18 254 39 q 187 -3 215 -3 q 140 18 160 -3 q 121 68 121 39 l 111 68 l 111 -236 l 14 -236 l 14 694 l 121 694 l 121 126 q 125 117 121 121 q 135 113 129 113 q 143 117 140 113 q 147 126 147 121 l 147 694 l 254 694 z "},"Ẁ":{"ha":412,"x_min":9,"x_max":403,"o":"m 210 1028 l 168 1168 l 204 1168 l 245 1028 l 210 1028 m 296 972 l 403 972 l 397 571 l 364 0 l 239 0 l 211 754 l 201 754 l 174 0 l 49 0 l 17 571 l 9 972 l 118 972 l 131 218 l 140 218 l 153 972 l 260 972 l 272 218 l 282 218 l 296 972 z "},"ẁ":{"ha":404,"x_min":9,"x_max":395,"o":"m 205 750 l 164 890 l 200 890 l 241 750 l 205 750 m 256 694 l 268 122 l 278 122 l 286 694 l 395 694 l 387 408 l 359 0 l 235 0 l 207 519 l 197 519 l 170 0 l 45 0 l 17 408 l 9 694 l 118 694 l 126 122 l 136 122 l 149 694 l 256 694 z "},"Ẃ":{"ha":412,"x_min":9,"x_max":403,"o":"m 204 1028 l 168 1028 l 210 1168 l 245 1168 l 204 1028 m 296 972 l 403 972 l 397 571 l 364 0 l 239 0 l 211 754 l 201 754 l 174 0 l 49 0 l 17 571 l 9 972 l 118 972 l 131 218 l 140 218 l 153 972 l 260 972 l 272 218 l 282 218 l 296 972 z "},"ẃ":{"ha":404,"x_min":9,"x_max":395,"o":"m 200 750 l 164 750 l 205 890 l 241 890 l 200 750 m 256 694 l 268 122 l 278 122 l 286 694 l 395 694 l 387 408 l 359 0 l 235 0 l 207 519 l 197 519 l 170 0 l 45 0 l 17 408 l 9 694 l 118 694 l 126 122 l 136 122 l 149 694 l 256 694 z "},"Ẅ":{"ha":412,"x_min":9,"x_max":403,"o":"m 256 1156 l 326 1084 l 256 1014 l 207 1064 l 157 1014 l 86 1084 l 157 1156 l 207 1105 l 256 1156 m 228 1084 l 256 1057 l 285 1084 l 256 1112 l 228 1084 m 129 1084 l 157 1057 l 184 1084 l 157 1112 l 129 1084 m 296 972 l 403 972 l 397 571 l 364 0 l 239 0 l 211 754 l 201 754 l 174 0 l 49 0 l 17 571 l 9 972 l 118 972 l 131 218 l 140 218 l 153 972 l 260 972 l 272 218 l 282 218 l 296 972 z "},"ẅ":{"ha":404,"x_min":9,"x_max":395,"o":"m 252 878 l 322 807 l 252 736 l 203 786 l 153 736 l 82 807 l 153 878 l 203 828 l 252 878 m 224 807 l 252 779 l 281 807 l 252 835 l 224 807 m 125 807 l 153 779 l 180 807 l 153 835 l 125 807 m 256 694 l 268 122 l 278 122 l 286 694 l 395 694 l 387 408 l 359 0 l 235 0 l 207 519 l 197 519 l 170 0 l 45 0 l 17 408 l 9 694 l 118 694 l 126 122 l 136 122 l 149 694 l 256 694 z "},"–":{"ha":268,"x_min":14,"x_max":254,"o":"m 254 389 l 14 389 l 14 496 l 254 496 l 254 389 z "},"—":{"ha":333,"x_min":14,"x_max":319,"o":"m 319 389 l 14 389 l 14 496 l 319 496 l 319 389 z "},"‘":{"ha":142,"x_min":18,"x_max":125,"o":"m 125 896 l 125 729 l 18 729 l 18 896 l 36 972 l 102 972 l 83 896 l 125 896 z "},"’":{"ha":142,"x_min":18,"x_max":125,"o":"m 18 806 l 18 972 l 125 972 l 125 806 l 107 729 l 41 729 l 60 806 l 18 806 z "},"‚":{"ha":142,"x_min":18,"x_max":125,"o":"m 18 0 l 18 167 l 125 167 l 125 0 l 107 -77 l 41 -77 l 60 0 l 18 0 z "},"“":{"ha":277,"x_min":18,"x_max":260,"o":"m 260 896 l 260 729 l 153 729 l 153 896 l 171 972 l 236 972 l 218 896 l 260 896 m 125 896 l 125 729 l 18 729 l 18 896 l 36 972 l 102 972 l 83 896 l 125 896 z "},"”":{"ha":277,"x_min":18,"x_max":260,"o":"m 18 806 l 18 972 l 125 972 l 125 806 l 107 729 l 41 729 l 60 806 l 18 806 m 153 806 l 153 972 l 260 972 l 260 806 l 241 729 l 176 729 l 195 806 l 153 806 z "},"„":{"ha":277,"x_min":18,"x_max":260,"o":"m 18 0 l 18 167 l 125 167 l 125 0 l 107 -77 l 41 -77 l 60 0 l 18 0 m 153 0 l 153 167 l 260 167 l 260 0 l 241 -77 l 176 -77 l 195 0 l 153 0 z "},"†":{"ha":201,"x_min":14,"x_max":187,"o":"m 83 -49 l 83 694 l 14 694 l 14 729 l 83 729 l 83 1021 l 118 1021 l 118 729 l 187 729 l 187 694 l 118 694 l 118 -49 l 83 -49 z "},"‡":{"ha":201,"x_min":14,"x_max":187,"o":"m 83 -49 l 83 243 l 14 243 l 14 278 l 83 278 l 83 694 l 14 694 l 14 729 l 83 729 l 83 1021 l 118 1021 l 118 729 l 187 729 l 187 694 l 118 694 l 118 278 l 187 278 l 187 243 l 118 243 l 118 -49 l 83 -49 z "},"•":{"ha":236,"x_min":14,"x_max":222,"o":"m 119 514 q 192 483 161 514 q 222 408 222 452 q 192 336 222 367 q 119 306 161 306 q 45 336 76 306 q 14 408 14 366 q 45 483 14 452 q 119 514 76 514 z "},"…":{"ha":412,"x_min":18,"x_max":395,"o":"m 18 0 l 18 167 l 125 167 l 125 0 l 18 0 m 153 0 l 153 167 l 260 167 l 260 0 l 153 0 m 288 0 l 288 167 l 395 167 l 395 0 l 288 0 z "},"‰":{"ha":566,"x_min":9,"x_max":557,"o":"m 106 975 q 172 947 144 975 q 200 879 200 918 l 200 786 q 172 720 200 747 q 106 692 144 692 q 38 720 66 692 q 9 786 9 747 l 9 879 q 38 947 9 918 q 106 975 66 975 m 261 972 l 353 972 l 249 467 l 197 467 l 102 0 l 9 0 l 114 505 l 165 505 l 261 972 m 115 793 l 115 873 q 113 881 115 878 q 106 885 110 885 q 98 881 101 885 q 94 873 94 878 l 94 793 q 106 782 94 782 q 115 793 115 782 m 258 281 q 325 252 297 281 q 353 184 353 224 l 353 92 q 325 25 353 53 q 258 -3 297 -3 q 191 25 219 -3 q 163 92 163 53 l 163 184 q 191 253 163 224 q 258 281 219 281 m 463 281 q 529 252 501 281 q 557 184 557 224 l 557 92 q 529 25 557 53 q 463 -3 501 -3 q 395 25 423 -3 q 367 92 367 53 l 367 184 q 395 253 367 224 q 463 281 423 281 m 268 98 l 268 179 q 265 187 268 183 q 258 191 262 191 q 251 187 254 191 q 248 179 248 183 l 248 98 q 258 87 248 87 q 268 98 268 87 m 472 98 l 472 179 q 469 187 472 183 q 463 191 467 191 q 455 187 458 191 q 452 179 452 183 l 452 98 q 463 87 452 87 q 472 98 472 87 z "},"‹":{"ha":199,"x_min":18,"x_max":182,"o":"m 158 273 l 18 412 l 158 553 l 182 529 l 66 412 l 180 297 l 158 273 z "},"›":{"ha":199,"x_min":18,"x_max":182,"o":"m 41 273 l 20 297 l 134 412 l 18 529 l 41 553 l 182 412 l 41 273 z "},"⁄":{"ha":268,"x_min":14,"x_max":254,"o":"m 218 972 l 254 972 l 50 0 l 14 0 l 218 972 z "},"₣":{"ha":203,"x_min":7,"x_max":196,"o":"m 21 972 l 196 972 l 196 857 l 127 857 l 127 663 l 195 663 l 195 554 l 127 554 l 127 359 l 196 359 l 196 253 l 127 253 l 127 0 l 21 0 l 21 253 l 7 253 l 7 359 l 21 359 l 21 972 z "},"€":{"ha":296,"x_min":14,"x_max":282,"o":"m 163 975 q 247 940 212 975 q 282 854 282 905 l 282 694 l 175 694 l 175 847 q 171 856 175 852 q 163 860 168 860 q 153 856 157 860 q 149 847 149 852 l 149 632 l 203 632 l 203 525 l 149 525 l 149 446 l 203 446 l 203 339 l 149 339 l 149 125 q 153 116 149 119 q 163 113 157 113 q 172 116 168 113 q 175 125 175 119 l 175 277 l 282 277 l 282 118 q 247 33 282 68 q 163 -3 212 -3 q 77 33 113 -3 q 41 118 41 68 l 41 339 l 14 339 l 14 446 l 41 446 l 41 525 l 14 525 l 14 632 l 41 632 l 41 854 q 77 940 41 904 q 163 975 113 975 z "},"™":{"ha":268,"x_min":14,"x_max":250,"o":"m 14 972 l 90 972 l 90 928 l 74 928 l 74 694 l 33 694 l 33 928 l 14 928 l 14 972 m 187 972 l 250 972 l 250 694 l 208 694 l 208 889 l 204 889 l 195 694 l 153 694 l 143 889 l 140 889 l 140 694 l 98 694 l 98 972 l 161 972 l 172 778 l 175 778 l 187 972 z "},"−":{"ha":229,"x_min":14,"x_max":215,"o":"m 14 541 l 215 541 l 215 433 l 14 433 l 14 541 z "},"ﬀ":{"ha":357,"x_min":7,"x_max":350,"o":"m 140 844 l 140 694 l 204 694 l 204 897 q 226 950 204 928 q 279 972 248 972 l 350 972 l 350 857 l 325 857 q 315 853 319 857 q 311 844 311 850 l 311 694 l 349 694 l 349 587 l 311 587 l 311 0 l 204 0 l 204 587 l 140 587 l 140 0 l 33 0 l 33 587 l 7 587 l 7 694 l 33 694 l 33 897 q 55 950 33 928 q 109 972 77 972 l 179 972 l 179 857 l 154 857 q 144 853 148 857 q 140 844 140 850 z "},"ﬁ":{"ha":321,"x_min":7,"x_max":307,"o":"m 140 844 l 140 694 l 307 694 l 307 0 l 200 0 l 200 587 l 140 587 l 140 0 l 33 0 l 33 587 l 7 587 l 7 694 l 33 694 l 33 897 q 55 950 33 928 q 109 972 77 972 l 179 972 l 179 857 l 154 857 q 144 853 148 857 q 140 844 140 850 m 200 722 l 200 889 l 307 889 l 307 722 l 200 722 z "},"ﬂ":{"ha":321,"x_min":7,"x_max":307,"o":"m 140 844 l 140 694 l 200 694 l 200 972 l 307 972 l 307 0 l 200 0 l 200 587 l 140 587 l 140 0 l 33 0 l 33 587 l 7 587 l 7 694 l 33 694 l 33 897 q 55 950 33 928 q 109 972 77 972 l 179 972 l 179 857 l 154 857 q 144 853 148 857 q 140 844 140 850 z "},"ﬃ":{"ha":491,"x_min":7,"x_max":478,"o":"m 140 844 l 140 694 l 204 694 l 204 897 q 226 950 204 928 q 279 972 248 972 l 350 972 l 350 857 l 325 857 q 315 853 319 857 q 311 844 311 850 l 311 694 l 478 694 l 478 0 l 371 0 l 371 587 l 311 587 l 311 0 l 204 0 l 204 587 l 140 587 l 140 0 l 33 0 l 33 587 l 7 587 l 7 694 l 33 694 l 33 897 q 55 950 33 928 q 109 972 77 972 l 179 972 l 179 857 l 154 857 q 144 853 148 857 q 140 844 140 850 m 371 722 l 371 889 l 478 889 l 478 722 l 371 722 z "},"ﬄ":{"ha":491,"x_min":7,"x_max":478,"o":"m 140 844 l 140 694 l 204 694 l 204 897 q 226 950 204 928 q 279 972 248 972 l 350 972 l 350 857 l 325 857 q 315 853 319 857 q 311 844 311 850 l 311 694 l 371 694 l 371 972 l 478 972 l 478 0 l 371 0 l 371 587 l 311 587 l 311 0 l 204 0 l 204 587 l 140 587 l 140 0 l 33 0 l 33 587 l 7 587 l 7 694 l 33 694 l 33 897 q 55 950 33 928 q 109 972 77 972 l 179 972 l 179 857 l 154 857 q 144 853 148 857 q 140 844 140 850 z "}}}
